ISO-10303-21;
HEADER;
/* Generated by software containing ST-Developer
 * from STEP Tools, Inc. (www.steptools.com) 
 */

FILE_DESCRIPTION(
/* description */ (''),
/* implementation_level */ '2;1');

FILE_NAME(
/* name */ 'tulgryd handles.step',
/* time_stamp */ '2026-01-26T13:51:57+02:00',
/* author */ (''),
/* organization */ (''),
/* preprocessor_version */ 'ST-DEVELOPER v20.1',
/* originating_system */ 'Autodesk Translation Framework v14.24.0.0',
/* authorisation */ '');

FILE_SCHEMA (('AUTOMOTIVE_DESIGN { 1 0 10303 214 3 1 1 }'));
ENDSEC;

DATA;
#10=MECHANICAL_DESIGN_GEOMETRIC_PRESENTATION_REPRESENTATION('',(#13),#1599);
#11=SHAPE_REPRESENTATION_RELATIONSHIP('SRR','None',#1606,#12);
#12=ADVANCED_BREP_SHAPE_REPRESENTATION('',(#14),#1598);
#13=STYLED_ITEM('',(#1615),#14);
#14=MANIFOLD_SOLID_BREP('handles',#863);
#15=CONICAL_SURFACE('',#985,2.9,0.785398163397449);
#16=FACE_BOUND('',#295,.T.);
#17=FACE_BOUND('',#302,.T.);
#18=FACE_BOUND('',#309,.T.);
#19=PLANE('',#958);
#20=PLANE('',#959);
#21=PLANE('',#960);
#22=PLANE('',#961);
#23=PLANE('',#963);
#24=PLANE('',#964);
#25=PLANE('',#972);
#26=PLANE('',#974);
#27=PLANE('',#978);
#28=PLANE('',#987);
#29=PLANE('',#988);
#30=PLANE('',#989);
#31=PLANE('',#990);
#32=PLANE('',#991);
#33=B_SPLINE_SURFACE_WITH_KNOTS('',3,3,((#1379,#1380,#1381,#1382),(#1383,
#1384,#1385,#1386),(#1387,#1388,#1389,#1390),(#1391,#1392,#1393,#1394),
(#1395,#1396,#1397,#1398)),.UNSPECIFIED.,.F.,.F.,.F.,(4,1,4),(4,4),(0.,
0.571428571428571,1.),(1.13446401379631,1.32825743908063),.UNSPECIFIED.);
#34=B_SPLINE_SURFACE_WITH_KNOTS('',3,3,((#1468,#1469,#1470,#1471),(#1472,
#1473,#1474,#1475),(#1476,#1477,#1478,#1479),(#1480,#1481,#1482,#1483),
(#1484,#1485,#1486,#1487)),.UNSPECIFIED.,.F.,.F.,.F.,(4,1,4),(4,4),(0.,
0.571428571428571,1.),(1.13446401379632,1.32825743907581),.UNSPECIFIED.);
#35=ELLIPSE('',#903,1.03290624756951,1.);
#36=ELLIPSE('',#918,2.28676446462828,2.);
#37=ELLIPSE('',#919,1.4930812826791,1.);
#38=ELLIPSE('',#925,1.03290624756951,1.);
#39=ELLIPSE('',#931,1.16057691494799,1.);
#40=ELLIPSE('',#933,1.4142135623731,1.);
#41=ELLIPSE('',#941,1.4930812826791,1.);
#42=ELLIPSE('',#942,2.28676446462828,2.);
#43=ELLIPSE('',#955,1.4142135623731,1.);
#44=ELLIPSE('',#957,1.16057691494799,1.);
#45=ELLIPSE('',#962,1.14338223231414,1.);
#46=ELLIPSE('',#977,1.14338223231414,1.);
#47=LINE('',#1344,#105);
#48=LINE('',#1345,#106);
#49=LINE('',#1348,#107);
#50=LINE('',#1350,#108);
#51=LINE('',#1377,#109);
#52=LINE('',#1378,#110);
#53=LINE('',#1424,#111);
#54=LINE('',#1426,#112);
#55=LINE('',#1439,#113);
#56=LINE('',#1440,#114);
#57=LINE('',#1445,#115);
#58=LINE('',#1446,#116);
#59=LINE('',#1448,#117);
#60=LINE('',#1449,#118);
#61=LINE('',#1451,#119);
#62=LINE('',#1452,#120);
#63=LINE('',#1454,#121);
#64=LINE('',#1455,#122);
#65=LINE('',#1457,#123);
#66=LINE('',#1458,#124);
#67=LINE('',#1460,#125);
#68=LINE('',#1461,#126);
#69=LINE('',#1466,#127);
#70=LINE('',#1467,#128);
#71=LINE('',#1502,#129);
#72=LINE('',#1503,#130);
#73=LINE('',#1505,#131);
#74=LINE('',#1506,#132);
#75=LINE('',#1508,#133);
#76=LINE('',#1509,#134);
#77=LINE('',#1511,#135);
#78=LINE('',#1512,#136);
#79=LINE('',#1514,#137);
#80=LINE('',#1515,#138);
#81=LINE('',#1517,#139);
#82=LINE('',#1518,#140);
#83=LINE('',#1520,#141);
#84=LINE('',#1521,#142);
#85=LINE('',#1526,#143);
#86=LINE('',#1527,#144);
#87=LINE('',#1532,#145);
#88=LINE('',#1533,#146);
#89=LINE('',#1535,#147);
#90=LINE('',#1537,#148);
#91=LINE('',#1539,#149);
#92=LINE('',#1542,#150);
#93=LINE('',#1544,#151);
#94=LINE('',#1547,#152);
#95=LINE('',#1557,#153);
#96=LINE('',#1560,#154);
#97=LINE('',#1563,#155);
#98=LINE('',#1566,#156);
#99=LINE('',#1567,#157);
#100=LINE('',#1572,#158);
#101=LINE('',#1574,#159);
#102=LINE('',#1576,#160);
#103=LINE('',#1586,#161);
#104=LINE('',#1590,#162);
#105=VECTOR('',#1044,10.);
#106=VECTOR('',#1045,10.);
#107=VECTOR('',#1048,10.);
#108=VECTOR('',#1049,10.);
#109=VECTOR('',#1080,10.);
#110=VECTOR('',#1081,10.);
#111=VECTOR('',#1096,10.);
#112=VECTOR('',#1097,10.);
#113=VECTOR('',#1112,10.);
#114=VECTOR('',#1113,10.);
#115=VECTOR('',#1118,10.);
#116=VECTOR('',#1119,10.);
#117=VECTOR('',#1122,10.);
#118=VECTOR('',#1123,10.);
#119=VECTOR('',#1126,10.);
#120=VECTOR('',#1127,10.);
#121=VECTOR('',#1130,10.);
#122=VECTOR('',#1131,10.);
#123=VECTOR('',#1134,10.);
#124=VECTOR('',#1135,10.);
#125=VECTOR('',#1138,10.);
#126=VECTOR('',#1139,10.);
#127=VECTOR('',#1144,10.);
#128=VECTOR('',#1145,10.);
#129=VECTOR('',#1160,10.);
#130=VECTOR('',#1161,10.);
#131=VECTOR('',#1164,10.);
#132=VECTOR('',#1165,10.);
#133=VECTOR('',#1168,10.);
#134=VECTOR('',#1169,10.);
#135=VECTOR('',#1172,10.);
#136=VECTOR('',#1173,10.);
#137=VECTOR('',#1176,10.);
#138=VECTOR('',#1177,10.);
#139=VECTOR('',#1180,10.);
#140=VECTOR('',#1181,10.);
#141=VECTOR('',#1184,10.);
#142=VECTOR('',#1185,10.);
#143=VECTOR('',#1190,10.);
#144=VECTOR('',#1191,10.);
#145=VECTOR('',#1196,10.);
#146=VECTOR('',#1197,10.);
#147=VECTOR('',#1200,10.);
#148=VECTOR('',#1203,10.);
#149=VECTOR('',#1206,10.);
#150=VECTOR('',#1209,10.);
#151=VECTOR('',#1210,10.);
#152=VECTOR('',#1215,10.);
#153=VECTOR('',#1228,2.25);
#154=VECTOR('',#1233,10.);
#155=VECTOR('',#1238,10.);
#156=VECTOR('',#1241,10.);
#157=VECTOR('',#1242,10.);
#158=VECTOR('',#1247,10.);
#159=VECTOR('',#1250,10.);
#160=VECTOR('',#1253,10.);
#161=VECTOR('',#1266,3.75);
#162=VECTOR('',#1271,2.9);
#163=CYLINDRICAL_SURFACE('',#901,1.);
#164=CYLINDRICAL_SURFACE('',#902,1.);
#165=CYLINDRICAL_SURFACE('',#916,1.);
#166=CYLINDRICAL_SURFACE('',#924,1.);
#167=CYLINDRICAL_SURFACE('',#930,1.);
#168=CYLINDRICAL_SURFACE('',#932,1.);
#169=CYLINDRICAL_SURFACE('',#934,1.);
#170=CYLINDRICAL_SURFACE('',#935,1.);
#171=CYLINDRICAL_SURFACE('',#936,1.);
#172=CYLINDRICAL_SURFACE('',#937,1.);
#173=CYLINDRICAL_SURFACE('',#938,1.);
#174=CYLINDRICAL_SURFACE('',#939,1.);
#175=CYLINDRICAL_SURFACE('',#947,1.);
#176=CYLINDRICAL_SURFACE('',#948,1.);
#177=CYLINDRICAL_SURFACE('',#949,1.);
#178=CYLINDRICAL_SURFACE('',#950,1.);
#179=CYLINDRICAL_SURFACE('',#951,1.);
#180=CYLINDRICAL_SURFACE('',#952,1.);
#181=CYLINDRICAL_SURFACE('',#953,1.);
#182=CYLINDRICAL_SURFACE('',#954,1.);
#183=CYLINDRICAL_SURFACE('',#956,1.);
#184=CYLINDRICAL_SURFACE('',#969,2.25);
#185=CYLINDRICAL_SURFACE('',#971,1.);
#186=CYLINDRICAL_SURFACE('',#973,1.);
#187=CYLINDRICAL_SURFACE('',#976,1.);
#188=CYLINDRICAL_SURFACE('',#983,3.75);
#189=B_SPLINE_CURVE_WITH_KNOTS('',3,(#1320,#1321,#1322,#1323,#1324,#1325,
#1326,#1327,#1328,#1329,#1330,#1331),.UNSPECIFIED.,.F.,.F.,(4,2,2,2,2,4),
(-0.000466803426162679,0.,0.0367139226422231,0.0709973080567769,0.109188459479195,
0.147202525247588),.UNSPECIFIED.);
#190=B_SPLINE_CURVE_WITH_KNOTS('',3,(#1332,#1333,#1334,#1335),
 .UNSPECIFIED.,.F.,.F.,(4,4),(-0.530053351383151,-0.519467674897553),
 .UNSPECIFIED.);
#191=B_SPLINE_CURVE_WITH_KNOTS('',3,(#1403,#1404,#1405,#1406,#1407,#1408,
#1409,#1410,#1411,#1412,#1413,#1414),.UNSPECIFIED.,.F.,.F.,(4,2,2,2,2,4),
(-0.14753618615107,-0.147069803607737,-0.110388983199425,-0.0761365085793586,
-0.0379797912951884,0.),.UNSPECIFIED.);
#192=B_SPLINE_CURVE_WITH_KNOTS('',3,(#1497,#1498,#1499,#1500),
 .UNSPECIFIED.,.F.,.F.,(4,4),(-0.241504631692348,-0.23091895520675),
 .UNSPECIFIED.);
#193=TOROIDAL_SURFACE('',#893,2.,1.);
#194=TOROIDAL_SURFACE('',#943,2.,1.);
#195=TOROIDAL_SURFACE('',#966,3.25,1.);
#196=TOROIDAL_SURFACE('',#979,4.75,1.);
#197=FACE_OUTER_BOUND('',#254,.T.);
#198=FACE_OUTER_BOUND('',#255,.T.);
#199=FACE_OUTER_BOUND('',#256,.T.);
#200=FACE_OUTER_BOUND('',#257,.T.);
#201=FACE_OUTER_BOUND('',#258,.T.);
#202=FACE_OUTER_BOUND('',#259,.T.);
#203=FACE_OUTER_BOUND('',#260,.T.);
#204=FACE_OUTER_BOUND('',#261,.T.);
#205=FACE_OUTER_BOUND('',#262,.T.);
#206=FACE_OUTER_BOUND('',#263,.T.);
#207=FACE_OUTER_BOUND('',#264,.T.);
#208=FACE_OUTER_BOUND('',#265,.T.);
#209=FACE_OUTER_BOUND('',#266,.T.);
#210=FACE_OUTER_BOUND('',#267,.T.);
#211=FACE_OUTER_BOUND('',#268,.T.);
#212=FACE_OUTER_BOUND('',#269,.T.);
#213=FACE_OUTER_BOUND('',#270,.T.);
#214=FACE_OUTER_BOUND('',#271,.T.);
#215=FACE_OUTER_BOUND('',#272,.T.);
#216=FACE_OUTER_BOUND('',#273,.T.);
#217=FACE_OUTER_BOUND('',#274,.T.);
#218=FACE_OUTER_BOUND('',#275,.T.);
#219=FACE_OUTER_BOUND('',#276,.T.);
#220=FACE_OUTER_BOUND('',#277,.T.);
#221=FACE_OUTER_BOUND('',#278,.T.);
#222=FACE_OUTER_BOUND('',#279,.T.);
#223=FACE_OUTER_BOUND('',#280,.T.);
#224=FACE_OUTER_BOUND('',#281,.T.);
#225=FACE_OUTER_BOUND('',#282,.T.);
#226=FACE_OUTER_BOUND('',#283,.T.);
#227=FACE_OUTER_BOUND('',#284,.T.);
#228=FACE_OUTER_BOUND('',#285,.T.);
#229=FACE_OUTER_BOUND('',#286,.T.);
#230=FACE_OUTER_BOUND('',#287,.T.);
#231=FACE_OUTER_BOUND('',#288,.T.);
#232=FACE_OUTER_BOUND('',#289,.T.);
#233=FACE_OUTER_BOUND('',#290,.T.);
#234=FACE_OUTER_BOUND('',#291,.T.);
#235=FACE_OUTER_BOUND('',#292,.T.);
#236=FACE_OUTER_BOUND('',#293,.T.);
#237=FACE_OUTER_BOUND('',#294,.T.);
#238=FACE_OUTER_BOUND('',#296,.T.);
#239=FACE_OUTER_BOUND('',#297,.T.);
#240=FACE_OUTER_BOUND('',#298,.T.);
#241=FACE_OUTER_BOUND('',#299,.T.);
#242=FACE_OUTER_BOUND('',#300,.T.);
#243=FACE_OUTER_BOUND('',#301,.T.);
#244=FACE_OUTER_BOUND('',#303,.T.);
#245=FACE_OUTER_BOUND('',#304,.T.);
#246=FACE_OUTER_BOUND('',#305,.T.);
#247=FACE_OUTER_BOUND('',#306,.T.);
#248=FACE_OUTER_BOUND('',#307,.T.);
#249=FACE_OUTER_BOUND('',#308,.T.);
#250=FACE_OUTER_BOUND('',#310,.T.);
#251=FACE_OUTER_BOUND('',#311,.T.);
#252=FACE_OUTER_BOUND('',#312,.T.);
#253=FACE_OUTER_BOUND('',#313,.T.);
#254=EDGE_LOOP('',(#552,#553,#554));
#255=EDGE_LOOP('',(#555,#556,#557));
#256=EDGE_LOOP('',(#558,#559,#560));
#257=EDGE_LOOP('',(#561,#562,#563));
#258=EDGE_LOOP('',(#564,#565,#566,#567,#568));
#259=EDGE_LOOP('',(#569,#570,#571));
#260=EDGE_LOOP('',(#572,#573,#574,#575));
#261=EDGE_LOOP('',(#576,#577,#578,#579));
#262=EDGE_LOOP('',(#580,#581,#582));
#263=EDGE_LOOP('',(#583,#584,#585));
#264=EDGE_LOOP('',(#586,#587,#588));
#265=EDGE_LOOP('',(#589,#590,#591,#592));
#266=EDGE_LOOP('',(#593,#594,#595,#596));
#267=EDGE_LOOP('',(#597,#598,#599));
#268=EDGE_LOOP('',(#600,#601,#602,#603));
#269=EDGE_LOOP('',(#604,#605,#606));
#270=EDGE_LOOP('',(#607,#608,#609,#610));
#271=EDGE_LOOP('',(#611,#612,#613,#614));
#272=EDGE_LOOP('',(#615,#616,#617,#618));
#273=EDGE_LOOP('',(#619,#620,#621,#622));
#274=EDGE_LOOP('',(#623,#624,#625,#626));
#275=EDGE_LOOP('',(#627,#628,#629,#630));
#276=EDGE_LOOP('',(#631,#632,#633,#634));
#277=EDGE_LOOP('',(#635,#636,#637,#638));
#278=EDGE_LOOP('',(#639,#640,#641,#642));
#279=EDGE_LOOP('',(#643,#644,#645,#646,#647));
#280=EDGE_LOOP('',(#648,#649,#650,#651));
#281=EDGE_LOOP('',(#652,#653,#654,#655));
#282=EDGE_LOOP('',(#656,#657,#658,#659));
#283=EDGE_LOOP('',(#660,#661,#662,#663));
#284=EDGE_LOOP('',(#664,#665,#666,#667));
#285=EDGE_LOOP('',(#668,#669,#670,#671));
#286=EDGE_LOOP('',(#672,#673,#674,#675));
#287=EDGE_LOOP('',(#676,#677,#678,#679));
#288=EDGE_LOOP('',(#680,#681,#682,#683));
#289=EDGE_LOOP('',(#684,#685,#686,#687,#688,#689));
#290=EDGE_LOOP('',(#690,#691,#692,#693));
#291=EDGE_LOOP('',(#694,#695,#696,#697,#698));
#292=EDGE_LOOP('',(#699,#700,#701,#702,#703));
#293=EDGE_LOOP('',(#704,#705,#706,#707,#708,#709,#710,#711,#712,#713));
#294=EDGE_LOOP('',(#714,#715,#716,#717));
#295=EDGE_LOOP('',(#718));
#296=EDGE_LOOP('',(#719,#720,#721,#722));
#297=EDGE_LOOP('',(#723,#724,#725,#726));
#298=EDGE_LOOP('',(#727,#728,#729,#730,#731,#732));
#299=EDGE_LOOP('',(#733,#734,#735,#736));
#300=EDGE_LOOP('',(#737,#738,#739,#740));
#301=EDGE_LOOP('',(#741,#742,#743,#744));
#302=EDGE_LOOP('',(#745));
#303=EDGE_LOOP('',(#746,#747,#748,#749,#750,#751));
#304=EDGE_LOOP('',(#752,#753,#754,#755));
#305=EDGE_LOOP('',(#756,#757,#758,#759,#760));
#306=EDGE_LOOP('',(#761,#762,#763,#764,#765));
#307=EDGE_LOOP('',(#766,#767,#768,#769));
#308=EDGE_LOOP('',(#770));
#309=EDGE_LOOP('',(#771));
#310=EDGE_LOOP('',(#772,#773,#774,#775,#776));
#311=EDGE_LOOP('',(#777,#778,#779,#780,#781));
#312=EDGE_LOOP('',(#782,#783,#784,#785,#786,#787,#788,#789));
#313=EDGE_LOOP('',(#790,#791,#792,#793,#794,#795));
#314=CIRCLE('',#878,1.);
#315=CIRCLE('',#879,0.999999999999999);
#316=CIRCLE('',#880,1.);
#317=CIRCLE('',#882,1.);
#318=CIRCLE('',#883,1.);
#319=CIRCLE('',#884,1.);
#320=CIRCLE('',#886,1.);
#321=CIRCLE('',#887,1.);
#322=CIRCLE('',#888,1.);
#323=CIRCLE('',#890,1.);
#324=CIRCLE('',#891,1.);
#325=CIRCLE('',#892,1.);
#326=CIRCLE('',#894,2.);
#327=CIRCLE('',#895,1.);
#328=CIRCLE('',#896,1.);
#329=CIRCLE('',#898,1.);
#330=CIRCLE('',#899,1.);
#331=CIRCLE('',#900,0.999999999999998);
#332=CIRCLE('',#905,1.);
#333=CIRCLE('',#906,1.);
#334=CIRCLE('',#907,0.999999999999996);
#335=CIRCLE('',#909,1.);
#336=CIRCLE('',#910,1.);
#337=CIRCLE('',#911,1.);
#338=CIRCLE('',#913,1.);
#339=CIRCLE('',#914,1.);
#340=CIRCLE('',#915,1.);
#341=CIRCLE('',#917,1.);
#342=CIRCLE('',#921,0.999999999999998);
#343=CIRCLE('',#922,1.);
#344=CIRCLE('',#923,1.);
#345=CIRCLE('',#927,1.);
#346=CIRCLE('',#928,1.);
#347=CIRCLE('',#929,1.);
#348=CIRCLE('',#940,1.);
#349=CIRCLE('',#944,1.);
#350=CIRCLE('',#945,0.999999999999996);
#351=CIRCLE('',#946,2.);
#352=CIRCLE('',#965,3.25);
#353=CIRCLE('',#967,1.);
#354=CIRCLE('',#968,2.25);
#355=CIRCLE('',#970,2.25);
#356=CIRCLE('',#975,4.75);
#357=CIRCLE('',#980,1.);
#358=CIRCLE('',#981,3.75);
#359=CIRCLE('',#982,3.75);
#360=CIRCLE('',#984,3.75);
#361=CIRCLE('',#986,3.55);
#362=VERTEX_POINT('',#1284);
#363=VERTEX_POINT('',#1285);
#364=VERTEX_POINT('',#1287);
#365=VERTEX_POINT('',#1291);
#366=VERTEX_POINT('',#1292);
#367=VERTEX_POINT('',#1294);
#368=VERTEX_POINT('',#1298);
#369=VERTEX_POINT('',#1299);
#370=VERTEX_POINT('',#1301);
#371=VERTEX_POINT('',#1305);
#372=VERTEX_POINT('',#1306);
#373=VERTEX_POINT('',#1308);
#374=VERTEX_POINT('',#1312);
#375=VERTEX_POINT('',#1313);
#376=VERTEX_POINT('',#1315);
#377=VERTEX_POINT('',#1317);
#378=VERTEX_POINT('',#1319);
#379=VERTEX_POINT('',#1337);
#380=VERTEX_POINT('',#1338);
#381=VERTEX_POINT('',#1340);
#382=VERTEX_POINT('',#1347);
#383=VERTEX_POINT('',#1349);
#384=VERTEX_POINT('',#1353);
#385=VERTEX_POINT('',#1354);
#386=VERTEX_POINT('',#1356);
#387=VERTEX_POINT('',#1360);
#388=VERTEX_POINT('',#1361);
#389=VERTEX_POINT('',#1363);
#390=VERTEX_POINT('',#1367);
#391=VERTEX_POINT('',#1368);
#392=VERTEX_POINT('',#1370);
#393=VERTEX_POINT('',#1374);
#394=VERTEX_POINT('',#1375);
#395=VERTEX_POINT('',#1399);
#396=VERTEX_POINT('',#1401);
#397=VERTEX_POINT('',#1416);
#398=VERTEX_POINT('',#1417);
#399=VERTEX_POINT('',#1419);
#400=VERTEX_POINT('',#1423);
#401=VERTEX_POINT('',#1425);
#402=VERTEX_POINT('',#1429);
#403=VERTEX_POINT('',#1430);
#404=VERTEX_POINT('',#1432);
#405=VERTEX_POINT('',#1436);
#406=VERTEX_POINT('',#1437);
#407=VERTEX_POINT('',#1442);
#408=VERTEX_POINT('',#1443);
#409=VERTEX_POINT('',#1463);
#410=VERTEX_POINT('',#1464);
#411=VERTEX_POINT('',#1491);
#412=VERTEX_POINT('',#1493);
#413=VERTEX_POINT('',#1495);
#414=VERTEX_POINT('',#1523);
#415=VERTEX_POINT('',#1524);
#416=VERTEX_POINT('',#1529);
#417=VERTEX_POINT('',#1530);
#418=VERTEX_POINT('',#1541);
#419=VERTEX_POINT('',#1543);
#420=VERTEX_POINT('',#1549);
#421=VERTEX_POINT('',#1552);
#422=VERTEX_POINT('',#1556);
#423=VERTEX_POINT('',#1565);
#424=VERTEX_POINT('',#1568);
#425=VERTEX_POINT('',#1571);
#426=VERTEX_POINT('',#1578);
#427=VERTEX_POINT('',#1580);
#428=VERTEX_POINT('',#1584);
#429=VERTEX_POINT('',#1588);
#430=EDGE_CURVE('',#362,#363,#314,.F.);
#431=EDGE_CURVE('',#364,#362,#315,.F.);
#432=EDGE_CURVE('',#363,#364,#316,.F.);
#433=EDGE_CURVE('',#365,#366,#317,.F.);
#434=EDGE_CURVE('',#367,#365,#318,.F.);
#435=EDGE_CURVE('',#366,#367,#319,.F.);
#436=EDGE_CURVE('',#368,#369,#320,.F.);
#437=EDGE_CURVE('',#370,#368,#321,.F.);
#438=EDGE_CURVE('',#369,#370,#322,.F.);
#439=EDGE_CURVE('',#371,#372,#323,.F.);
#440=EDGE_CURVE('',#373,#371,#324,.F.);
#441=EDGE_CURVE('',#372,#373,#325,.F.);
#442=EDGE_CURVE('',#374,#375,#326,.T.);
#443=EDGE_CURVE('',#375,#376,#327,.T.);
#444=EDGE_CURVE('',#376,#377,#328,.T.);
#445=EDGE_CURVE('',#377,#378,#189,.T.);
#446=EDGE_CURVE('',#378,#374,#190,.T.);
#447=EDGE_CURVE('',#379,#380,#329,.F.);
#448=EDGE_CURVE('',#381,#379,#330,.F.);
#449=EDGE_CURVE('',#380,#381,#331,.F.);
#450=EDGE_CURVE('',#379,#367,#47,.T.);
#451=EDGE_CURVE('',#365,#381,#48,.T.);
#452=EDGE_CURVE('',#382,#380,#49,.T.);
#453=EDGE_CURVE('',#381,#383,#50,.T.);
#454=EDGE_CURVE('',#383,#382,#35,.T.);
#455=EDGE_CURVE('',#384,#385,#332,.F.);
#456=EDGE_CURVE('',#386,#384,#333,.F.);
#457=EDGE_CURVE('',#385,#386,#334,.F.);
#458=EDGE_CURVE('',#387,#388,#335,.F.);
#459=EDGE_CURVE('',#389,#387,#336,.F.);
#460=EDGE_CURVE('',#388,#389,#337,.F.);
#461=EDGE_CURVE('',#390,#391,#338,.F.);
#462=EDGE_CURVE('',#392,#390,#339,.F.);
#463=EDGE_CURVE('',#391,#392,#340,.F.);
#464=EDGE_CURVE('',#393,#394,#341,.T.);
#465=EDGE_CURVE('',#394,#392,#51,.T.);
#466=EDGE_CURVE('',#390,#393,#52,.T.);
#467=EDGE_CURVE('',#395,#394,#36,.T.);
#468=EDGE_CURVE('',#393,#396,#37,.T.);
#469=EDGE_CURVE('',#396,#395,#191,.T.);
#470=EDGE_CURVE('',#397,#398,#342,.F.);
#471=EDGE_CURVE('',#399,#397,#343,.F.);
#472=EDGE_CURVE('',#398,#399,#344,.F.);
#473=EDGE_CURVE('',#400,#399,#53,.T.);
#474=EDGE_CURVE('',#397,#401,#54,.T.);
#475=EDGE_CURVE('',#401,#400,#38,.T.);
#476=EDGE_CURVE('',#402,#403,#345,.F.);
#477=EDGE_CURVE('',#404,#402,#346,.F.);
#478=EDGE_CURVE('',#403,#404,#347,.F.);
#479=EDGE_CURVE('',#405,#406,#39,.F.);
#480=EDGE_CURVE('',#406,#404,#55,.T.);
#481=EDGE_CURVE('',#402,#405,#56,.T.);
#482=EDGE_CURVE('',#407,#408,#40,.F.);
#483=EDGE_CURVE('',#408,#403,#57,.T.);
#484=EDGE_CURVE('',#404,#407,#58,.T.);
#485=EDGE_CURVE('',#403,#398,#59,.T.);
#486=EDGE_CURVE('',#399,#402,#60,.T.);
#487=EDGE_CURVE('',#392,#397,#61,.T.);
#488=EDGE_CURVE('',#398,#391,#62,.T.);
#489=EDGE_CURVE('',#391,#389,#63,.T.);
#490=EDGE_CURVE('',#387,#390,#64,.T.);
#491=EDGE_CURVE('',#401,#386,#65,.T.);
#492=EDGE_CURVE('',#384,#400,#66,.T.);
#493=EDGE_CURVE('',#389,#379,#67,.T.);
#494=EDGE_CURVE('',#380,#388,#68,.T.);
#495=EDGE_CURVE('',#409,#410,#348,.T.);
#496=EDGE_CURVE('',#410,#387,#69,.T.);
#497=EDGE_CURVE('',#388,#409,#70,.T.);
#498=EDGE_CURVE('',#377,#410,#41,.T.);
#499=EDGE_CURVE('',#409,#378,#42,.T.);
#500=EDGE_CURVE('',#396,#411,#349,.T.);
#501=EDGE_CURVE('',#411,#412,#350,.T.);
#502=EDGE_CURVE('',#412,#413,#351,.T.);
#503=EDGE_CURVE('',#413,#395,#192,.T.);
#504=EDGE_CURVE('',#371,#412,#71,.T.);
#505=EDGE_CURVE('',#411,#373,#72,.T.);
#506=EDGE_CURVE('',#372,#385,#73,.T.);
#507=EDGE_CURVE('',#386,#371,#74,.T.);
#508=EDGE_CURVE('',#385,#369,#75,.T.);
#509=EDGE_CURVE('',#370,#384,#76,.T.);
#510=EDGE_CURVE('',#362,#376,#77,.T.);
#511=EDGE_CURVE('',#375,#364,#78,.T.);
#512=EDGE_CURVE('',#363,#372,#79,.T.);
#513=EDGE_CURVE('',#373,#362,#80,.T.);
#514=EDGE_CURVE('',#383,#370,#81,.T.);
#515=EDGE_CURVE('',#368,#382,#82,.T.);
#516=EDGE_CURVE('',#369,#363,#83,.T.);
#517=EDGE_CURVE('',#364,#368,#84,.T.);
#518=EDGE_CURVE('',#414,#415,#43,.F.);
#519=EDGE_CURVE('',#415,#366,#85,.T.);
#520=EDGE_CURVE('',#367,#414,#86,.T.);
#521=EDGE_CURVE('',#416,#417,#44,.F.);
#522=EDGE_CURVE('',#417,#365,#87,.T.);
#523=EDGE_CURVE('',#366,#416,#88,.T.);
#524=EDGE_CURVE('',#382,#374,#89,.T.);
#525=EDGE_CURVE('',#376,#411,#90,.T.);
#526=EDGE_CURVE('',#401,#413,#91,.T.);
#527=EDGE_CURVE('',#406,#418,#92,.F.);
#528=EDGE_CURVE('',#418,#419,#93,.T.);
#529=EDGE_CURVE('',#407,#419,#45,.F.);
#530=EDGE_CURVE('',#405,#417,#94,.T.);
#531=EDGE_CURVE('',#420,#420,#352,.T.);
#532=EDGE_CURVE('',#420,#421,#353,.T.);
#533=EDGE_CURVE('',#421,#421,#354,.T.);
#534=EDGE_CURVE('',#421,#422,#95,.T.);
#535=EDGE_CURVE('',#422,#422,#355,.T.);
#536=EDGE_CURVE('',#393,#410,#96,.T.);
#537=EDGE_CURVE('',#416,#406,#97,.T.);
#538=EDGE_CURVE('',#416,#423,#98,.T.);
#539=EDGE_CURVE('',#418,#423,#99,.T.);
#540=EDGE_CURVE('',#424,#424,#356,.T.);
#541=EDGE_CURVE('',#419,#425,#100,.T.);
#542=EDGE_CURVE('',#425,#415,#46,.F.);
#543=EDGE_CURVE('',#414,#408,#101,.T.);
#544=EDGE_CURVE('',#423,#425,#102,.T.);
#545=EDGE_CURVE('',#424,#426,#357,.T.);
#546=EDGE_CURVE('',#426,#427,#358,.T.);
#547=EDGE_CURVE('',#427,#426,#359,.T.);
#548=EDGE_CURVE('',#428,#428,#360,.T.);
#549=EDGE_CURVE('',#428,#427,#103,.T.);
#550=EDGE_CURVE('',#429,#429,#361,.T.);
#551=EDGE_CURVE('',#429,#422,#104,.T.);
#552=ORIENTED_EDGE('',*,*,#430,.F.);
#553=ORIENTED_EDGE('',*,*,#431,.F.);
#554=ORIENTED_EDGE('',*,*,#432,.F.);
#555=ORIENTED_EDGE('',*,*,#433,.F.);
#556=ORIENTED_EDGE('',*,*,#434,.F.);
#557=ORIENTED_EDGE('',*,*,#435,.F.);
#558=ORIENTED_EDGE('',*,*,#436,.F.);
#559=ORIENTED_EDGE('',*,*,#437,.F.);
#560=ORIENTED_EDGE('',*,*,#438,.F.);
#561=ORIENTED_EDGE('',*,*,#439,.F.);
#562=ORIENTED_EDGE('',*,*,#440,.F.);
#563=ORIENTED_EDGE('',*,*,#441,.F.);
#564=ORIENTED_EDGE('',*,*,#442,.T.);
#565=ORIENTED_EDGE('',*,*,#443,.T.);
#566=ORIENTED_EDGE('',*,*,#444,.T.);
#567=ORIENTED_EDGE('',*,*,#445,.T.);
#568=ORIENTED_EDGE('',*,*,#446,.T.);
#569=ORIENTED_EDGE('',*,*,#447,.F.);
#570=ORIENTED_EDGE('',*,*,#448,.F.);
#571=ORIENTED_EDGE('',*,*,#449,.F.);
#572=ORIENTED_EDGE('',*,*,#448,.T.);
#573=ORIENTED_EDGE('',*,*,#450,.T.);
#574=ORIENTED_EDGE('',*,*,#434,.T.);
#575=ORIENTED_EDGE('',*,*,#451,.T.);
#576=ORIENTED_EDGE('',*,*,#452,.T.);
#577=ORIENTED_EDGE('',*,*,#449,.T.);
#578=ORIENTED_EDGE('',*,*,#453,.T.);
#579=ORIENTED_EDGE('',*,*,#454,.T.);
#580=ORIENTED_EDGE('',*,*,#455,.F.);
#581=ORIENTED_EDGE('',*,*,#456,.F.);
#582=ORIENTED_EDGE('',*,*,#457,.F.);
#583=ORIENTED_EDGE('',*,*,#458,.F.);
#584=ORIENTED_EDGE('',*,*,#459,.F.);
#585=ORIENTED_EDGE('',*,*,#460,.F.);
#586=ORIENTED_EDGE('',*,*,#461,.F.);
#587=ORIENTED_EDGE('',*,*,#462,.F.);
#588=ORIENTED_EDGE('',*,*,#463,.F.);
#589=ORIENTED_EDGE('',*,*,#464,.T.);
#590=ORIENTED_EDGE('',*,*,#465,.T.);
#591=ORIENTED_EDGE('',*,*,#462,.T.);
#592=ORIENTED_EDGE('',*,*,#466,.T.);
#593=ORIENTED_EDGE('',*,*,#467,.T.);
#594=ORIENTED_EDGE('',*,*,#464,.F.);
#595=ORIENTED_EDGE('',*,*,#468,.T.);
#596=ORIENTED_EDGE('',*,*,#469,.T.);
#597=ORIENTED_EDGE('',*,*,#470,.F.);
#598=ORIENTED_EDGE('',*,*,#471,.F.);
#599=ORIENTED_EDGE('',*,*,#472,.F.);
#600=ORIENTED_EDGE('',*,*,#473,.T.);
#601=ORIENTED_EDGE('',*,*,#471,.T.);
#602=ORIENTED_EDGE('',*,*,#474,.T.);
#603=ORIENTED_EDGE('',*,*,#475,.T.);
#604=ORIENTED_EDGE('',*,*,#476,.F.);
#605=ORIENTED_EDGE('',*,*,#477,.F.);
#606=ORIENTED_EDGE('',*,*,#478,.F.);
#607=ORIENTED_EDGE('',*,*,#479,.T.);
#608=ORIENTED_EDGE('',*,*,#480,.T.);
#609=ORIENTED_EDGE('',*,*,#477,.T.);
#610=ORIENTED_EDGE('',*,*,#481,.T.);
#611=ORIENTED_EDGE('',*,*,#482,.T.);
#612=ORIENTED_EDGE('',*,*,#483,.T.);
#613=ORIENTED_EDGE('',*,*,#478,.T.);
#614=ORIENTED_EDGE('',*,*,#484,.T.);
#615=ORIENTED_EDGE('',*,*,#476,.T.);
#616=ORIENTED_EDGE('',*,*,#485,.T.);
#617=ORIENTED_EDGE('',*,*,#472,.T.);
#618=ORIENTED_EDGE('',*,*,#486,.T.);
#619=ORIENTED_EDGE('',*,*,#463,.T.);
#620=ORIENTED_EDGE('',*,*,#487,.T.);
#621=ORIENTED_EDGE('',*,*,#470,.T.);
#622=ORIENTED_EDGE('',*,*,#488,.T.);
#623=ORIENTED_EDGE('',*,*,#461,.T.);
#624=ORIENTED_EDGE('',*,*,#489,.T.);
#625=ORIENTED_EDGE('',*,*,#459,.T.);
#626=ORIENTED_EDGE('',*,*,#490,.T.);
#627=ORIENTED_EDGE('',*,*,#491,.T.);
#628=ORIENTED_EDGE('',*,*,#456,.T.);
#629=ORIENTED_EDGE('',*,*,#492,.T.);
#630=ORIENTED_EDGE('',*,*,#475,.F.);
#631=ORIENTED_EDGE('',*,*,#460,.T.);
#632=ORIENTED_EDGE('',*,*,#493,.T.);
#633=ORIENTED_EDGE('',*,*,#447,.T.);
#634=ORIENTED_EDGE('',*,*,#494,.T.);
#635=ORIENTED_EDGE('',*,*,#495,.T.);
#636=ORIENTED_EDGE('',*,*,#496,.T.);
#637=ORIENTED_EDGE('',*,*,#458,.T.);
#638=ORIENTED_EDGE('',*,*,#497,.T.);
#639=ORIENTED_EDGE('',*,*,#498,.T.);
#640=ORIENTED_EDGE('',*,*,#495,.F.);
#641=ORIENTED_EDGE('',*,*,#499,.T.);
#642=ORIENTED_EDGE('',*,*,#445,.F.);
#643=ORIENTED_EDGE('',*,*,#500,.T.);
#644=ORIENTED_EDGE('',*,*,#501,.T.);
#645=ORIENTED_EDGE('',*,*,#502,.T.);
#646=ORIENTED_EDGE('',*,*,#503,.T.);
#647=ORIENTED_EDGE('',*,*,#469,.F.);
#648=ORIENTED_EDGE('',*,*,#440,.T.);
#649=ORIENTED_EDGE('',*,*,#504,.T.);
#650=ORIENTED_EDGE('',*,*,#501,.F.);
#651=ORIENTED_EDGE('',*,*,#505,.T.);
#652=ORIENTED_EDGE('',*,*,#439,.T.);
#653=ORIENTED_EDGE('',*,*,#506,.T.);
#654=ORIENTED_EDGE('',*,*,#457,.T.);
#655=ORIENTED_EDGE('',*,*,#507,.T.);
#656=ORIENTED_EDGE('',*,*,#455,.T.);
#657=ORIENTED_EDGE('',*,*,#508,.T.);
#658=ORIENTED_EDGE('',*,*,#438,.T.);
#659=ORIENTED_EDGE('',*,*,#509,.T.);
#660=ORIENTED_EDGE('',*,*,#431,.T.);
#661=ORIENTED_EDGE('',*,*,#510,.T.);
#662=ORIENTED_EDGE('',*,*,#443,.F.);
#663=ORIENTED_EDGE('',*,*,#511,.T.);
#664=ORIENTED_EDGE('',*,*,#430,.T.);
#665=ORIENTED_EDGE('',*,*,#512,.T.);
#666=ORIENTED_EDGE('',*,*,#441,.T.);
#667=ORIENTED_EDGE('',*,*,#513,.T.);
#668=ORIENTED_EDGE('',*,*,#514,.T.);
#669=ORIENTED_EDGE('',*,*,#437,.T.);
#670=ORIENTED_EDGE('',*,*,#515,.T.);
#671=ORIENTED_EDGE('',*,*,#454,.F.);
#672=ORIENTED_EDGE('',*,*,#436,.T.);
#673=ORIENTED_EDGE('',*,*,#516,.T.);
#674=ORIENTED_EDGE('',*,*,#432,.T.);
#675=ORIENTED_EDGE('',*,*,#517,.T.);
#676=ORIENTED_EDGE('',*,*,#518,.T.);
#677=ORIENTED_EDGE('',*,*,#519,.T.);
#678=ORIENTED_EDGE('',*,*,#435,.T.);
#679=ORIENTED_EDGE('',*,*,#520,.T.);
#680=ORIENTED_EDGE('',*,*,#521,.T.);
#681=ORIENTED_EDGE('',*,*,#522,.T.);
#682=ORIENTED_EDGE('',*,*,#433,.T.);
#683=ORIENTED_EDGE('',*,*,#523,.T.);
#684=ORIENTED_EDGE('',*,*,#499,.F.);
#685=ORIENTED_EDGE('',*,*,#497,.F.);
#686=ORIENTED_EDGE('',*,*,#494,.F.);
#687=ORIENTED_EDGE('',*,*,#452,.F.);
#688=ORIENTED_EDGE('',*,*,#524,.T.);
#689=ORIENTED_EDGE('',*,*,#446,.F.);
#690=ORIENTED_EDGE('',*,*,#510,.F.);
#691=ORIENTED_EDGE('',*,*,#513,.F.);
#692=ORIENTED_EDGE('',*,*,#505,.F.);
#693=ORIENTED_EDGE('',*,*,#525,.F.);
#694=ORIENTED_EDGE('',*,*,#502,.F.);
#695=ORIENTED_EDGE('',*,*,#504,.F.);
#696=ORIENTED_EDGE('',*,*,#507,.F.);
#697=ORIENTED_EDGE('',*,*,#491,.F.);
#698=ORIENTED_EDGE('',*,*,#526,.T.);
#699=ORIENTED_EDGE('',*,*,#484,.F.);
#700=ORIENTED_EDGE('',*,*,#480,.F.);
#701=ORIENTED_EDGE('',*,*,#527,.T.);
#702=ORIENTED_EDGE('',*,*,#528,.T.);
#703=ORIENTED_EDGE('',*,*,#529,.F.);
#704=ORIENTED_EDGE('',*,*,#530,.F.);
#705=ORIENTED_EDGE('',*,*,#481,.F.);
#706=ORIENTED_EDGE('',*,*,#486,.F.);
#707=ORIENTED_EDGE('',*,*,#473,.F.);
#708=ORIENTED_EDGE('',*,*,#492,.F.);
#709=ORIENTED_EDGE('',*,*,#509,.F.);
#710=ORIENTED_EDGE('',*,*,#514,.F.);
#711=ORIENTED_EDGE('',*,*,#453,.F.);
#712=ORIENTED_EDGE('',*,*,#451,.F.);
#713=ORIENTED_EDGE('',*,*,#522,.F.);
#714=ORIENTED_EDGE('',*,*,#506,.F.);
#715=ORIENTED_EDGE('',*,*,#512,.F.);
#716=ORIENTED_EDGE('',*,*,#516,.F.);
#717=ORIENTED_EDGE('',*,*,#508,.F.);
#718=ORIENTED_EDGE('',*,*,#531,.F.);
#719=ORIENTED_EDGE('',*,*,#531,.T.);
#720=ORIENTED_EDGE('',*,*,#532,.T.);
#721=ORIENTED_EDGE('',*,*,#533,.T.);
#722=ORIENTED_EDGE('',*,*,#532,.F.);
#723=ORIENTED_EDGE('',*,*,#533,.F.);
#724=ORIENTED_EDGE('',*,*,#534,.T.);
#725=ORIENTED_EDGE('',*,*,#535,.F.);
#726=ORIENTED_EDGE('',*,*,#534,.F.);
#727=ORIENTED_EDGE('',*,*,#444,.F.);
#728=ORIENTED_EDGE('',*,*,#525,.T.);
#729=ORIENTED_EDGE('',*,*,#500,.F.);
#730=ORIENTED_EDGE('',*,*,#468,.F.);
#731=ORIENTED_EDGE('',*,*,#536,.T.);
#732=ORIENTED_EDGE('',*,*,#498,.F.);
#733=ORIENTED_EDGE('',*,*,#496,.F.);
#734=ORIENTED_EDGE('',*,*,#536,.F.);
#735=ORIENTED_EDGE('',*,*,#466,.F.);
#736=ORIENTED_EDGE('',*,*,#490,.F.);
#737=ORIENTED_EDGE('',*,*,#537,.T.);
#738=ORIENTED_EDGE('',*,*,#479,.F.);
#739=ORIENTED_EDGE('',*,*,#530,.T.);
#740=ORIENTED_EDGE('',*,*,#521,.F.);
#741=ORIENTED_EDGE('',*,*,#537,.F.);
#742=ORIENTED_EDGE('',*,*,#538,.T.);
#743=ORIENTED_EDGE('',*,*,#539,.F.);
#744=ORIENTED_EDGE('',*,*,#527,.F.);
#745=ORIENTED_EDGE('',*,*,#540,.F.);
#746=ORIENTED_EDGE('',*,*,#529,.T.);
#747=ORIENTED_EDGE('',*,*,#541,.T.);
#748=ORIENTED_EDGE('',*,*,#542,.T.);
#749=ORIENTED_EDGE('',*,*,#518,.F.);
#750=ORIENTED_EDGE('',*,*,#543,.T.);
#751=ORIENTED_EDGE('',*,*,#482,.F.);
#752=ORIENTED_EDGE('',*,*,#541,.F.);
#753=ORIENTED_EDGE('',*,*,#528,.F.);
#754=ORIENTED_EDGE('',*,*,#539,.T.);
#755=ORIENTED_EDGE('',*,*,#544,.T.);
#756=ORIENTED_EDGE('',*,*,#540,.T.);
#757=ORIENTED_EDGE('',*,*,#545,.T.);
#758=ORIENTED_EDGE('',*,*,#546,.T.);
#759=ORIENTED_EDGE('',*,*,#547,.T.);
#760=ORIENTED_EDGE('',*,*,#545,.F.);
#761=ORIENTED_EDGE('',*,*,#548,.F.);
#762=ORIENTED_EDGE('',*,*,#549,.T.);
#763=ORIENTED_EDGE('',*,*,#546,.F.);
#764=ORIENTED_EDGE('',*,*,#547,.F.);
#765=ORIENTED_EDGE('',*,*,#549,.F.);
#766=ORIENTED_EDGE('',*,*,#550,.T.);
#767=ORIENTED_EDGE('',*,*,#551,.T.);
#768=ORIENTED_EDGE('',*,*,#535,.T.);
#769=ORIENTED_EDGE('',*,*,#551,.F.);
#770=ORIENTED_EDGE('',*,*,#548,.T.);
#771=ORIENTED_EDGE('',*,*,#550,.F.);
#772=ORIENTED_EDGE('',*,*,#442,.F.);
#773=ORIENTED_EDGE('',*,*,#524,.F.);
#774=ORIENTED_EDGE('',*,*,#515,.F.);
#775=ORIENTED_EDGE('',*,*,#517,.F.);
#776=ORIENTED_EDGE('',*,*,#511,.F.);
#777=ORIENTED_EDGE('',*,*,#519,.F.);
#778=ORIENTED_EDGE('',*,*,#542,.F.);
#779=ORIENTED_EDGE('',*,*,#544,.F.);
#780=ORIENTED_EDGE('',*,*,#538,.F.);
#781=ORIENTED_EDGE('',*,*,#523,.F.);
#782=ORIENTED_EDGE('',*,*,#543,.F.);
#783=ORIENTED_EDGE('',*,*,#520,.F.);
#784=ORIENTED_EDGE('',*,*,#450,.F.);
#785=ORIENTED_EDGE('',*,*,#493,.F.);
#786=ORIENTED_EDGE('',*,*,#489,.F.);
#787=ORIENTED_EDGE('',*,*,#488,.F.);
#788=ORIENTED_EDGE('',*,*,#485,.F.);
#789=ORIENTED_EDGE('',*,*,#483,.F.);
#790=ORIENTED_EDGE('',*,*,#467,.F.);
#791=ORIENTED_EDGE('',*,*,#503,.F.);
#792=ORIENTED_EDGE('',*,*,#526,.F.);
#793=ORIENTED_EDGE('',*,*,#474,.F.);
#794=ORIENTED_EDGE('',*,*,#487,.F.);
#795=ORIENTED_EDGE('',*,*,#465,.F.);
#796=SPHERICAL_SURFACE('',#877,0.999999999999999);
#797=SPHERICAL_SURFACE('',#881,1.);
#798=SPHERICAL_SURFACE('',#885,1.);
#799=SPHERICAL_SURFACE('',#889,1.);
#800=SPHERICAL_SURFACE('',#897,1.);
#801=SPHERICAL_SURFACE('',#904,1.);
#802=SPHERICAL_SURFACE('',#908,1.);
#803=SPHERICAL_SURFACE('',#912,1.);
#804=SPHERICAL_SURFACE('',#920,1.);
#805=SPHERICAL_SURFACE('',#926,1.);
#806=ADVANCED_FACE('',(#197),#796,.T.);
#807=ADVANCED_FACE('',(#198),#797,.T.);
#808=ADVANCED_FACE('',(#199),#798,.T.);
#809=ADVANCED_FACE('',(#200),#799,.T.);
#810=ADVANCED_FACE('',(#201),#193,.T.);
#811=ADVANCED_FACE('',(#202),#800,.T.);
#812=ADVANCED_FACE('',(#203),#163,.T.);
#813=ADVANCED_FACE('',(#204),#164,.T.);
#814=ADVANCED_FACE('',(#205),#801,.T.);
#815=ADVANCED_FACE('',(#206),#802,.T.);
#816=ADVANCED_FACE('',(#207),#803,.T.);
#817=ADVANCED_FACE('',(#208),#165,.T.);
#818=ADVANCED_FACE('',(#209),#33,.F.);
#819=ADVANCED_FACE('',(#210),#804,.T.);
#820=ADVANCED_FACE('',(#211),#166,.T.);
#821=ADVANCED_FACE('',(#212),#805,.T.);
#822=ADVANCED_FACE('',(#213),#167,.T.);
#823=ADVANCED_FACE('',(#214),#168,.T.);
#824=ADVANCED_FACE('',(#215),#169,.T.);
#825=ADVANCED_FACE('',(#216),#170,.T.);
#826=ADVANCED_FACE('',(#217),#171,.T.);
#827=ADVANCED_FACE('',(#218),#172,.T.);
#828=ADVANCED_FACE('',(#219),#173,.T.);
#829=ADVANCED_FACE('',(#220),#174,.T.);
#830=ADVANCED_FACE('',(#221),#34,.F.);
#831=ADVANCED_FACE('',(#222),#194,.T.);
#832=ADVANCED_FACE('',(#223),#175,.T.);
#833=ADVANCED_FACE('',(#224),#176,.T.);
#834=ADVANCED_FACE('',(#225),#177,.T.);
#835=ADVANCED_FACE('',(#226),#178,.T.);
#836=ADVANCED_FACE('',(#227),#179,.T.);
#837=ADVANCED_FACE('',(#228),#180,.T.);
#838=ADVANCED_FACE('',(#229),#181,.T.);
#839=ADVANCED_FACE('',(#230),#182,.T.);
#840=ADVANCED_FACE('',(#231),#183,.T.);
#841=ADVANCED_FACE('',(#232),#19,.F.);
#842=ADVANCED_FACE('',(#233),#20,.T.);
#843=ADVANCED_FACE('',(#234),#21,.T.);
#844=ADVANCED_FACE('',(#235),#22,.F.);
#845=ADVANCED_FACE('',(#236),#23,.F.);
#846=ADVANCED_FACE('',(#237,#16),#24,.T.);
#847=ADVANCED_FACE('',(#238),#195,.T.);
#848=ADVANCED_FACE('',(#239),#184,.F.);
#849=ADVANCED_FACE('',(#240),#185,.F.);
#850=ADVANCED_FACE('',(#241),#25,.T.);
#851=ADVANCED_FACE('',(#242),#186,.T.);
#852=ADVANCED_FACE('',(#243,#17),#26,.T.);
#853=ADVANCED_FACE('',(#244),#187,.T.);
#854=ADVANCED_FACE('',(#245),#27,.F.);
#855=ADVANCED_FACE('',(#246),#196,.T.);
#856=ADVANCED_FACE('',(#247),#188,.F.);
#857=ADVANCED_FACE('',(#248),#15,.F.);
#858=ADVANCED_FACE('',(#249,#18),#28,.F.);
#859=ADVANCED_FACE('',(#250),#29,.T.);
#860=ADVANCED_FACE('',(#251),#30,.T.);
#861=ADVANCED_FACE('',(#252),#31,.F.);
#862=ADVANCED_FACE('',(#253),#32,.T.);
#863=CLOSED_SHELL('',(#806,#807,#808,#809,#810,#811,#812,#813,#814,#815,
#816,#817,#818,#819,#820,#821,#822,#823,#824,#825,#826,#827,#828,#829,#830,
#831,#832,#833,#834,#835,#836,#837,#838,#839,#840,#841,#842,#843,#844,#845,
#846,#847,#848,#849,#850,#851,#852,#853,#854,#855,#856,#857,#858,#859,#860,
#861,#862));
#864=DERIVED_UNIT_ELEMENT(#866,1.);
#865=DERIVED_UNIT_ELEMENT(#1601,-3.);
#866=(
MASS_UNIT()
NAMED_UNIT(*)
SI_UNIT(.KILO.,.GRAM.)
);
#867=DERIVED_UNIT((#864,#865));
#868=MEASURE_REPRESENTATION_ITEM('density measure',
POSITIVE_RATIO_MEASURE(7850.),#867);
#869=PROPERTY_DEFINITION_REPRESENTATION(#874,#871);
#870=PROPERTY_DEFINITION_REPRESENTATION(#875,#872);
#871=REPRESENTATION('material name',(#873),#1598);
#872=REPRESENTATION('density',(#868),#1598);
#873=DESCRIPTIVE_REPRESENTATION_ITEM('Steel','Steel');
#874=PROPERTY_DEFINITION('material property','material name',#1608);
#875=PROPERTY_DEFINITION('material property','density of part',#1608);
#876=AXIS2_PLACEMENT_3D('',#1282,#992,#993);
#877=AXIS2_PLACEMENT_3D('',#1283,#994,#995);
#878=AXIS2_PLACEMENT_3D('',#1286,#996,#997);
#879=AXIS2_PLACEMENT_3D('',#1288,#998,#999);
#880=AXIS2_PLACEMENT_3D('',#1289,#1000,#1001);
#881=AXIS2_PLACEMENT_3D('',#1290,#1002,#1003);
#882=AXIS2_PLACEMENT_3D('',#1293,#1004,#1005);
#883=AXIS2_PLACEMENT_3D('',#1295,#1006,#1007);
#884=AXIS2_PLACEMENT_3D('',#1296,#1008,#1009);
#885=AXIS2_PLACEMENT_3D('',#1297,#1010,#1011);
#886=AXIS2_PLACEMENT_3D('',#1300,#1012,#1013);
#887=AXIS2_PLACEMENT_3D('',#1302,#1014,#1015);
#888=AXIS2_PLACEMENT_3D('',#1303,#1016,#1017);
#889=AXIS2_PLACEMENT_3D('',#1304,#1018,#1019);
#890=AXIS2_PLACEMENT_3D('',#1307,#1020,#1021);
#891=AXIS2_PLACEMENT_3D('',#1309,#1022,#1023);
#892=AXIS2_PLACEMENT_3D('',#1310,#1024,#1025);
#893=AXIS2_PLACEMENT_3D('',#1311,#1026,#1027);
#894=AXIS2_PLACEMENT_3D('',#1314,#1028,#1029);
#895=AXIS2_PLACEMENT_3D('',#1316,#1030,#1031);
#896=AXIS2_PLACEMENT_3D('',#1318,#1032,#1033);
#897=AXIS2_PLACEMENT_3D('',#1336,#1034,#1035);
#898=AXIS2_PLACEMENT_3D('',#1339,#1036,#1037);
#899=AXIS2_PLACEMENT_3D('',#1341,#1038,#1039);
#900=AXIS2_PLACEMENT_3D('',#1342,#1040,#1041);
#901=AXIS2_PLACEMENT_3D('',#1343,#1042,#1043);
#902=AXIS2_PLACEMENT_3D('',#1346,#1046,#1047);
#903=AXIS2_PLACEMENT_3D('',#1351,#1050,#1051);
#904=AXIS2_PLACEMENT_3D('',#1352,#1052,#1053);
#905=AXIS2_PLACEMENT_3D('',#1355,#1054,#1055);
#906=AXIS2_PLACEMENT_3D('',#1357,#1056,#1057);
#907=AXIS2_PLACEMENT_3D('',#1358,#1058,#1059);
#908=AXIS2_PLACEMENT_3D('',#1359,#1060,#1061);
#909=AXIS2_PLACEMENT_3D('',#1362,#1062,#1063);
#910=AXIS2_PLACEMENT_3D('',#1364,#1064,#1065);
#911=AXIS2_PLACEMENT_3D('',#1365,#1066,#1067);
#912=AXIS2_PLACEMENT_3D('',#1366,#1068,#1069);
#913=AXIS2_PLACEMENT_3D('',#1369,#1070,#1071);
#914=AXIS2_PLACEMENT_3D('',#1371,#1072,#1073);
#915=AXIS2_PLACEMENT_3D('',#1372,#1074,#1075);
#916=AXIS2_PLACEMENT_3D('',#1373,#1076,#1077);
#917=AXIS2_PLACEMENT_3D('',#1376,#1078,#1079);
#918=AXIS2_PLACEMENT_3D('',#1400,#1082,#1083);
#919=AXIS2_PLACEMENT_3D('',#1402,#1084,#1085);
#920=AXIS2_PLACEMENT_3D('',#1415,#1086,#1087);
#921=AXIS2_PLACEMENT_3D('',#1418,#1088,#1089);
#922=AXIS2_PLACEMENT_3D('',#1420,#1090,#1091);
#923=AXIS2_PLACEMENT_3D('',#1421,#1092,#1093);
#924=AXIS2_PLACEMENT_3D('',#1422,#1094,#1095);
#925=AXIS2_PLACEMENT_3D('',#1427,#1098,#1099);
#926=AXIS2_PLACEMENT_3D('',#1428,#1100,#1101);
#927=AXIS2_PLACEMENT_3D('',#1431,#1102,#1103);
#928=AXIS2_PLACEMENT_3D('',#1433,#1104,#1105);
#929=AXIS2_PLACEMENT_3D('',#1434,#1106,#1107);
#930=AXIS2_PLACEMENT_3D('',#1435,#1108,#1109);
#931=AXIS2_PLACEMENT_3D('',#1438,#1110,#1111);
#932=AXIS2_PLACEMENT_3D('',#1441,#1114,#1115);
#933=AXIS2_PLACEMENT_3D('',#1444,#1116,#1117);
#934=AXIS2_PLACEMENT_3D('',#1447,#1120,#1121);
#935=AXIS2_PLACEMENT_3D('',#1450,#1124,#1125);
#936=AXIS2_PLACEMENT_3D('',#1453,#1128,#1129);
#937=AXIS2_PLACEMENT_3D('',#1456,#1132,#1133);
#938=AXIS2_PLACEMENT_3D('',#1459,#1136,#1137);
#939=AXIS2_PLACEMENT_3D('',#1462,#1140,#1141);
#940=AXIS2_PLACEMENT_3D('',#1465,#1142,#1143);
#941=AXIS2_PLACEMENT_3D('',#1488,#1146,#1147);
#942=AXIS2_PLACEMENT_3D('',#1489,#1148,#1149);
#943=AXIS2_PLACEMENT_3D('',#1490,#1150,#1151);
#944=AXIS2_PLACEMENT_3D('',#1492,#1152,#1153);
#945=AXIS2_PLACEMENT_3D('',#1494,#1154,#1155);
#946=AXIS2_PLACEMENT_3D('',#1496,#1156,#1157);
#947=AXIS2_PLACEMENT_3D('',#1501,#1158,#1159);
#948=AXIS2_PLACEMENT_3D('',#1504,#1162,#1163);
#949=AXIS2_PLACEMENT_3D('',#1507,#1166,#1167);
#950=AXIS2_PLACEMENT_3D('',#1510,#1170,#1171);
#951=AXIS2_PLACEMENT_3D('',#1513,#1174,#1175);
#952=AXIS2_PLACEMENT_3D('',#1516,#1178,#1179);
#953=AXIS2_PLACEMENT_3D('',#1519,#1182,#1183);
#954=AXIS2_PLACEMENT_3D('',#1522,#1186,#1187);
#955=AXIS2_PLACEMENT_3D('',#1525,#1188,#1189);
#956=AXIS2_PLACEMENT_3D('',#1528,#1192,#1193);
#957=AXIS2_PLACEMENT_3D('',#1531,#1194,#1195);
#958=AXIS2_PLACEMENT_3D('',#1534,#1198,#1199);
#959=AXIS2_PLACEMENT_3D('',#1536,#1201,#1202);
#960=AXIS2_PLACEMENT_3D('',#1538,#1204,#1205);
#961=AXIS2_PLACEMENT_3D('',#1540,#1207,#1208);
#962=AXIS2_PLACEMENT_3D('',#1545,#1211,#1212);
#963=AXIS2_PLACEMENT_3D('',#1546,#1213,#1214);
#964=AXIS2_PLACEMENT_3D('',#1548,#1216,#1217);
#965=AXIS2_PLACEMENT_3D('',#1550,#1218,#1219);
#966=AXIS2_PLACEMENT_3D('',#1551,#1220,#1221);
#967=AXIS2_PLACEMENT_3D('',#1553,#1222,#1223);
#968=AXIS2_PLACEMENT_3D('',#1554,#1224,#1225);
#969=AXIS2_PLACEMENT_3D('',#1555,#1226,#1227);
#970=AXIS2_PLACEMENT_3D('',#1558,#1229,#1230);
#971=AXIS2_PLACEMENT_3D('',#1559,#1231,#1232);
#972=AXIS2_PLACEMENT_3D('',#1561,#1234,#1235);
#973=AXIS2_PLACEMENT_3D('',#1562,#1236,#1237);
#974=AXIS2_PLACEMENT_3D('',#1564,#1239,#1240);
#975=AXIS2_PLACEMENT_3D('',#1569,#1243,#1244);
#976=AXIS2_PLACEMENT_3D('',#1570,#1245,#1246);
#977=AXIS2_PLACEMENT_3D('',#1573,#1248,#1249);
#978=AXIS2_PLACEMENT_3D('',#1575,#1251,#1252);
#979=AXIS2_PLACEMENT_3D('',#1577,#1254,#1255);
#980=AXIS2_PLACEMENT_3D('',#1579,#1256,#1257);
#981=AXIS2_PLACEMENT_3D('',#1581,#1258,#1259);
#982=AXIS2_PLACEMENT_3D('',#1582,#1260,#1261);
#983=AXIS2_PLACEMENT_3D('',#1583,#1262,#1263);
#984=AXIS2_PLACEMENT_3D('',#1585,#1264,#1265);
#985=AXIS2_PLACEMENT_3D('',#1587,#1267,#1268);
#986=AXIS2_PLACEMENT_3D('',#1589,#1269,#1270);
#987=AXIS2_PLACEMENT_3D('',#1591,#1272,#1273);
#988=AXIS2_PLACEMENT_3D('',#1592,#1274,#1275);
#989=AXIS2_PLACEMENT_3D('',#1593,#1276,#1277);
#990=AXIS2_PLACEMENT_3D('',#1594,#1278,#1279);
#991=AXIS2_PLACEMENT_3D('',#1595,#1280,#1281);
#992=DIRECTION('axis',(0.,0.,1.));
#993=DIRECTION('refdir',(1.,0.,0.));
#994=DIRECTION('center_axis',(-0.816496580927725,0.408248290463864,-0.408248290463864));
#995=DIRECTION('ref_axis',(0.577350269189628,0.577350269189628,-0.577350269189621));
#996=DIRECTION('center_axis',(1.,0.,-2.22044604925031E-15));
#997=DIRECTION('ref_axis',(0.,1.,0.));
#998=DIRECTION('center_axis',(0.,4.44089209850062E-15,-1.));
#999=DIRECTION('ref_axis',(1.,0.,0.));
#1000=DIRECTION('center_axis',(0.,1.,0.));
#1001=DIRECTION('ref_axis',(0.,0.,-1.));
#1002=DIRECTION('center_axis',(0.254726316236086,-0.864922888501302,-0.432461444250651));
#1003=DIRECTION('ref_axis',(-0.43896498880042,-0.501904768802374,0.745252535494434));
#1004=DIRECTION('center_axis',(0.484848484848484,0.,0.874598163009808));
#1005=DIRECTION('ref_axis',(0.,-1.,0.));
#1006=DIRECTION('center_axis',(-1.,0.,0.));
#1007=DIRECTION('ref_axis',(0.,-1.38777878078145E-16,1.));
#1008=DIRECTION('center_axis',(-2.35610055806291E-16,-1.,-1.38777878078144E-16));
#1009=DIRECTION('ref_axis',(-0.874598163009807,1.38777878078144E-16,0.484848484848485));
#1010=DIRECTION('center_axis',(-0.408248290463863,-0.816496580927726,0.408248290463863));
#1011=DIRECTION('ref_axis',(0.577350269189626,-0.577350269189625,-0.577350269189626));
#1012=DIRECTION('center_axis',(0.,-1.,0.));
#1013=DIRECTION('ref_axis',(1.,0.,0.));
#1014=DIRECTION('center_axis',(0.,0.,-1.));
#1015=DIRECTION('ref_axis',(0.,-1.,0.));
#1016=DIRECTION('center_axis',(1.,0.,0.));
#1017=DIRECTION('ref_axis',(0.,0.,-1.));
#1018=DIRECTION('center_axis',(-0.408248290463862,-0.816496580927727,-0.408248290463863));
#1019=DIRECTION('ref_axis',(-0.577350269189625,0.577350269189626,-0.577350269189626));
#1020=DIRECTION('center_axis',(0.,1.,0.));
#1021=DIRECTION('ref_axis',(-1.,0.,0.));
#1022=DIRECTION('center_axis',(4.44089209850063E-15,0.,-1.));
#1023=DIRECTION('ref_axis',(0.,1.,0.));
#1024=DIRECTION('center_axis',(-1.,-1.11022302462516E-15,0.));
#1025=DIRECTION('ref_axis',(0.,0.,-1.));
#1026=DIRECTION('center_axis',(1.,0.,2.61228946970625E-16));
#1027=DIRECTION('ref_axis',(0.,0.,-1.));
#1028=DIRECTION('center_axis',(1.,0.,2.61228946970625E-16));
#1029=DIRECTION('ref_axis',(-2.91383678076619E-17,-0.993759562194707,0.111543411040655));
#1030=DIRECTION('center_axis',(0.,0.,1.));
#1031=DIRECTION('ref_axis',(1.,0.,0.));
#1032=DIRECTION('center_axis',(-1.,0.,-2.61228946970625E-16));
#1033=DIRECTION('ref_axis',(0.,-0.993759562194707,0.111543411040655));
#1034=DIRECTION('center_axis',(-0.789460194922331,-0.545654147369044,0.281094560765871));
#1035=DIRECTION('ref_axis',(0.613801760044069,-0.701810026597538,0.361538498550246));
#1036=DIRECTION('center_axis',(0.,-1.,0.));
#1037=DIRECTION('ref_axis',(0.,0.,1.));
#1038=DIRECTION('center_axis',(1.,0.,2.22044604925031E-15));
#1039=DIRECTION('ref_axis',(0.,-1.,0.));
#1040=DIRECTION('center_axis',(0.484848484848484,4.96057597414023E-15,0.874598163009807));
#1041=DIRECTION('ref_axis',(0.874598163009807,-1.38777878078145E-16,-0.484848484848484));
#1042=DIRECTION('center_axis',(1.,0.,-1.75376583232752E-17));
#1043=DIRECTION('ref_axis',(0.,-0.707106781186548,0.707106781186547));
#1044=DIRECTION('',(-1.,0.,1.75376583232752E-17));
#1045=DIRECTION('',(1.,0.,-1.75376583232752E-17));
#1046=DIRECTION('center_axis',(0.484848484848485,0.,0.874598163009807));
#1047=DIRECTION('ref_axis',(0.618434291877532,-0.707106781186548,-0.342839651484386));
#1048=DIRECTION('',(0.484848484848485,0.,0.874598163009807));
#1049=DIRECTION('',(-0.484848484848485,0.,-0.874598163009807));
#1050=DIRECTION('center_axis',(0.250401514562308,0.,0.968142077127579));
#1051=DIRECTION('ref_axis',(-0.968142077127578,0.,0.250401514562308));
#1052=DIRECTION('center_axis',(0.408248290463863,-0.816496580927726,0.408248290463863));
#1053=DIRECTION('ref_axis',(-0.577350269189624,-0.577350269189625,-0.577350269189629));
#1054=DIRECTION('center_axis',(-1.,0.,-2.22044604925031E-15));
#1055=DIRECTION('ref_axis',(0.,-1.,0.));
#1056=DIRECTION('center_axis',(0.,0.,-1.));
#1057=DIRECTION('ref_axis',(-1.,0.,0.));
#1058=DIRECTION('center_axis',(0.,-1.,0.));
#1059=DIRECTION('ref_axis',(0.,0.,-1.));
#1060=DIRECTION('center_axis',(-0.721379562519517,0.688958287660927,0.0703420545795555));
#1061=DIRECTION('ref_axis',(0.692539909881841,0.717648789702,0.073271330410375));
#1062=DIRECTION('center_axis',(0.448947870922039,0.377633907401174,0.809838527840884));
#1063=DIRECTION('ref_axis',(0.,0.90630778703665,-0.422618261740699));
#1064=DIRECTION('center_axis',(1.,4.89998228198059E-15,0.));
#1065=DIRECTION('ref_axis',(0.,0.,1.));
#1066=DIRECTION('center_axis',(0.,1.,0.));
#1067=DIRECTION('ref_axis',(0.874598163009807,0.,-0.484848484848485));
#1068=DIRECTION('center_axis',(-0.721379562519513,-0.688958287660931,-0.0703420545795609));
#1069=DIRECTION('ref_axis',(-0.692539909881846,0.717648789701995,0.0732713304103796));
#1070=DIRECTION('center_axis',(-1.,-4.14164398914173E-15,-8.88178419700125E-15));
#1071=DIRECTION('ref_axis',(0.,0.90630778703665,-0.422618261740699));
#1072=DIRECTION('center_axis',(-0.44894787092204,0.377633907401168,0.809838527840886));
#1073=DIRECTION('ref_axis',(-0.874598163009807,0.,-0.484848484848484));
#1074=DIRECTION('center_axis',(-5.07763712104988E-15,1.,0.));
#1075=DIRECTION('ref_axis',(0.,0.,1.));
#1076=DIRECTION('center_axis',(-0.44894787092204,0.377633907401174,0.809838527840884));
#1077=DIRECTION('ref_axis',(-0.563400218691202,0.583826981365684,-0.584573562016055));
#1078=DIRECTION('center_axis',(-0.448947870922041,0.377633907401175,0.809838527840882));
#1079=DIRECTION('ref_axis',(-1.11022302462515E-15,0.906307787036649,-0.422618261740702));
#1080=DIRECTION('',(-0.44894787092204,0.377633907401174,0.809838527840883));
#1081=DIRECTION('',(0.44894787092204,-0.377633907401174,-0.809838527840883));
#1082=DIRECTION('center_axis',(-0.874598163009807,-1.47833643154353E-16,
-0.484848484848485));
#1083=DIRECTION('ref_axis',(-0.484848484848485,1.5171859654193E-16,0.874598163009807));
#1084=DIRECTION('center_axis',(0.669755901169463,0.,0.742581330797294));
#1085=DIRECTION('ref_axis',(-0.742581330797294,0.,0.669755901169463));
#1086=DIRECTION('center_axis',(-0.78946019492233,0.545654147369043,-0.281094560765873));
#1087=DIRECTION('ref_axis',(-0.613801760044069,-0.701810026597536,0.361538498550249));
#1088=DIRECTION('center_axis',(2.35610055806292E-16,-1.,-1.38777878078144E-16));
#1089=DIRECTION('ref_axis',(-0.874598163009807,-1.38777878078145E-16,-0.484848484848485));
#1090=DIRECTION('center_axis',(-0.484848484848484,0.,0.874598163009807));
#1091=DIRECTION('ref_axis',(0.,-1.,0.));
#1092=DIRECTION('center_axis',(-1.,0.,0.));
#1093=DIRECTION('ref_axis',(0.,-1.38777878078145E-16,1.));
#1094=DIRECTION('center_axis',(-0.484848484848485,0.,0.874598163009807));
#1095=DIRECTION('ref_axis',(-0.618434291877532,-0.707106781186548,-0.342839651484386));
#1096=DIRECTION('',(-0.484848484848485,0.,0.874598163009807));
#1097=DIRECTION('',(0.484848484848485,0.,-0.874598163009807));
#1098=DIRECTION('center_axis',(-0.250401514562308,0.,0.968142077127579));
#1099=DIRECTION('ref_axis',(0.968142077127578,0.,0.250401514562308));
#1100=DIRECTION('center_axis',(-0.254726316236086,-0.864922888501302,-0.43246144425065));
#1101=DIRECTION('ref_axis',(0.438964988800419,-0.501904768802374,0.745252535494435));
#1102=DIRECTION('center_axis',(1.,0.,0.));
#1103=DIRECTION('ref_axis',(0.,-1.,0.));
#1104=DIRECTION('center_axis',(-0.484848484848485,0.,0.874598163009807));
#1105=DIRECTION('ref_axis',(0.874598163009807,1.38777878078144E-16,0.484848484848485));
#1106=DIRECTION('center_axis',(2.35610055806291E-16,-1.,-1.38777878078144E-16));
#1107=DIRECTION('ref_axis',(0.,-1.38777878078144E-16,1.));
#1108=DIRECTION('center_axis',(-0.484848484848485,0.,0.874598163009807));
#1109=DIRECTION('ref_axis',(0.618434291877532,-0.707106781186547,0.342839651484388));
#1110=DIRECTION('center_axis',(0.86164043685533,0.,-0.507519218922552));
#1111=DIRECTION('ref_axis',(0.507519218922552,1.79364947239662E-16,0.86164043685533));
#1112=DIRECTION('',(-0.484848484848485,0.,0.874598163009807));
#1113=DIRECTION('',(0.484848484848485,0.,-0.874598163009807));
#1114=DIRECTION('center_axis',(-2.15817519889692E-16,1.,8.43974242784145E-17));
#1115=DIRECTION('ref_axis',(0.507519218922551,3.68113055995011E-17,0.86164043685533));
#1116=DIRECTION('center_axis',(0.707106781186548,0.707106781186548,0.));
#1117=DIRECTION('ref_axis',(0.707106781186548,-0.707106781186547,0.));
#1118=DIRECTION('',(2.15817519889692E-16,-1.,-8.43974242784145E-17));
#1119=DIRECTION('',(-2.15817519889692E-16,1.,8.43974242784145E-17));
#1120=DIRECTION('center_axis',(1.,0.,-1.75376583232752E-17));
#1121=DIRECTION('ref_axis',(0.,-0.707106781186548,0.707106781186547));
#1122=DIRECTION('',(-1.,0.,1.75376583232752E-17));
#1123=DIRECTION('',(1.,0.,-1.75376583232752E-17));
#1124=DIRECTION('center_axis',(-2.15817519889692E-16,1.,8.43974242784145E-17));
#1125=DIRECTION('ref_axis',(-0.861640436855328,-2.28790416967644E-16,0.507519218922554));
#1126=DIRECTION('',(2.15817519889692E-16,-1.,-8.43974242784145E-17));
#1127=DIRECTION('',(-2.15817519889692E-16,1.,8.43974242784145E-17));
#1128=DIRECTION('center_axis',(-1.,8.24243367976049E-17,1.75376583232752E-17));
#1129=DIRECTION('ref_axis',(0.,0.843391445812886,0.537299608346823));
#1130=DIRECTION('',(1.,-8.24243367976049E-17,-1.75376583232752E-17));
#1131=DIRECTION('',(-1.,8.24243367976049E-17,1.75376583232752E-17));
#1132=DIRECTION('center_axis',(2.61228946970625E-16,0.,-1.));
#1133=DIRECTION('ref_axis',(-0.707106781186548,-0.707106781186547,0.));
#1134=DIRECTION('',(2.61228946970625E-16,0.,-1.));
#1135=DIRECTION('',(-2.61228946970625E-16,0.,1.));
#1136=DIRECTION('center_axis',(2.15817519889692E-16,1.,8.43974242784145E-17));
#1137=DIRECTION('ref_axis',(0.86164043685533,-2.28790416967644E-16,0.507519218922551));
#1138=DIRECTION('',(-2.15817519889692E-16,-1.,-8.43974242784145E-17));
#1139=DIRECTION('',(2.15817519889692E-16,1.,8.43974242784145E-17));
#1140=DIRECTION('center_axis',(0.44894787092204,0.377633907401174,0.809838527840884));
#1141=DIRECTION('ref_axis',(0.563400218691203,0.583826981365685,-0.584573562016053));
#1142=DIRECTION('center_axis',(0.44894787092204,0.377633907401173,0.809838527840884));
#1143=DIRECTION('ref_axis',(0.874598163009807,0.,-0.484848484848485));
#1144=DIRECTION('',(0.44894787092204,0.377633907401174,0.809838527840883));
#1145=DIRECTION('',(-0.44894787092204,-0.377633907401174,-0.809838527840883));
#1146=DIRECTION('center_axis',(-0.669755901169464,0.,0.742581330797294));
#1147=DIRECTION('ref_axis',(0.742581330797294,0.,0.669755901169463));
#1148=DIRECTION('center_axis',(0.874598163009807,-1.47833643154353E-16,
-0.484848484848485));
#1149=DIRECTION('ref_axis',(0.484848484848485,1.5171859654193E-16,0.874598163009807));
#1150=DIRECTION('center_axis',(1.,0.,2.61228946970625E-16));
#1151=DIRECTION('ref_axis',(0.,0.,-1.));
#1152=DIRECTION('center_axis',(1.,0.,2.61228946970625E-16));
#1153=DIRECTION('ref_axis',(0.,-0.993759562194707,0.111543411040658));
#1154=DIRECTION('center_axis',(0.,0.,1.));
#1155=DIRECTION('ref_axis',(0.,1.,0.));
#1156=DIRECTION('center_axis',(-1.,0.,-2.61228946970625E-16));
#1157=DIRECTION('ref_axis',(-2.91383678076627E-17,-0.993759562194707,0.111543411040658));
#1158=DIRECTION('center_axis',(2.61228946970625E-16,2.92455005193807E-32,
-1.));
#1159=DIRECTION('ref_axis',(-0.707106781186547,0.707106781186548,0.));
#1160=DIRECTION('',(-2.61228946970625E-16,-2.92455005193807E-32,1.));
#1161=DIRECTION('',(2.61228946970625E-16,2.92455005193807E-32,-1.));
#1162=DIRECTION('center_axis',(-7.6397713043067E-48,1.,2.92455005193807E-32));
#1163=DIRECTION('ref_axis',(-0.707106781186548,2.06796917364488E-32,-0.707106781186547));
#1164=DIRECTION('',(7.6397713043067E-48,-1.,-2.92455005193807E-32));
#1165=DIRECTION('',(-7.6397713043067E-48,1.,2.92455005193807E-32));
#1166=DIRECTION('center_axis',(-1.,0.,-2.61228946970625E-16));
#1167=DIRECTION('ref_axis',(0.,-0.707106781186546,-0.707106781186549));
#1168=DIRECTION('',(1.,0.,2.61228946970625E-16));
#1169=DIRECTION('',(-1.,0.,-2.61228946970625E-16));
#1170=DIRECTION('center_axis',(2.61228946970625E-16,2.92455005193807E-32,
-1.));
#1171=DIRECTION('ref_axis',(0.707106781186547,0.707106781186548,0.));
#1172=DIRECTION('',(-2.61228946970625E-16,-2.92455005193807E-32,1.));
#1173=DIRECTION('',(2.61228946970625E-16,2.92455005193807E-32,-1.));
#1174=DIRECTION('center_axis',(1.,2.46519032881566E-32,2.61228946970625E-16));
#1175=DIRECTION('ref_axis',(0.,0.707106781186546,-0.707106781186549));
#1176=DIRECTION('',(-1.,-2.46519032881566E-32,-2.61228946970625E-16));
#1177=DIRECTION('',(1.,2.46519032881566E-32,2.61228946970625E-16));
#1178=DIRECTION('center_axis',(2.61228946970625E-16,0.,-1.));
#1179=DIRECTION('ref_axis',(0.707106781186548,-0.707106781186547,0.));
#1180=DIRECTION('',(2.61228946970625E-16,0.,-1.));
#1181=DIRECTION('',(-2.61228946970625E-16,0.,1.));
#1182=DIRECTION('center_axis',(7.6397713043067E-48,-1.,-2.92455005193807E-32));
#1183=DIRECTION('ref_axis',(0.707106781186545,0.,-0.70710678118655));
#1184=DIRECTION('',(-7.6397713043067E-48,1.,2.92455005193807E-32));
#1185=DIRECTION('',(7.6397713043067E-48,-1.,-2.92455005193807E-32));
#1186=DIRECTION('center_axis',(-2.15817519889692E-16,-1.,-8.43974242784145E-17));
#1187=DIRECTION('ref_axis',(-0.507519218922551,3.68113055995014E-17,0.86164043685533));
#1188=DIRECTION('center_axis',(-0.707106781186548,0.707106781186548,0.));
#1189=DIRECTION('ref_axis',(-0.707106781186548,-0.707106781186547,0.));
#1190=DIRECTION('',(-2.15817519889692E-16,-1.,-8.43974242784145E-17));
#1191=DIRECTION('',(2.15817519889692E-16,1.,8.43974242784145E-17));
#1192=DIRECTION('center_axis',(-0.484848484848485,0.,-0.874598163009807));
#1193=DIRECTION('ref_axis',(-0.618434291877532,-0.707106781186547,0.342839651484388));
#1194=DIRECTION('center_axis',(-0.861640436855329,0.,-0.507519218922552));
#1195=DIRECTION('ref_axis',(-0.507519218922552,0.,0.861640436855329));
#1196=DIRECTION('',(0.484848484848485,0.,0.874598163009807));
#1197=DIRECTION('',(-0.484848484848485,0.,-0.874598163009807));
#1198=DIRECTION('center_axis',(-0.874598163009807,1.47833643154353E-16,
0.484848484848485));
#1199=DIRECTION('ref_axis',(0.484848484848485,0.,0.874598163009807));
#1200=DIRECTION('',(0.,1.,0.));
#1201=DIRECTION('center_axis',(-2.46519032881566E-32,1.,2.92455005193807E-32));
#1202=DIRECTION('ref_axis',(1.,2.46519032881566E-32,2.35610055806292E-16));
#1203=DIRECTION('',(-1.,-2.46519032881566E-32,-1.59221902357599E-16));
#1204=DIRECTION('center_axis',(-1.,0.,-2.61228946970625E-16));
#1205=DIRECTION('ref_axis',(0.,1.,0.));
#1206=DIRECTION('',(0.,1.,0.));
#1207=DIRECTION('center_axis',(-0.874598163009807,-1.47833643154353E-16,
-0.484848484848485));
#1208=DIRECTION('ref_axis',(-0.484848484848485,0.,0.874598163009807));
#1209=DIRECTION('',(1.69030360920956E-16,-1.,1.05797522501634E-32));
#1210=DIRECTION('',(-0.44894787092204,0.377633907401174,0.809838527840883));
#1211=DIRECTION('center_axis',(-0.874598163009807,-1.47833643154353E-16,
-0.484848484848485));
#1212=DIRECTION('ref_axis',(-0.484848484848485,4.85499508934177E-16,0.874598163009807));
#1213=DIRECTION('center_axis',(0.,1.,0.));
#1214=DIRECTION('ref_axis',(0.,0.,1.));
#1215=DIRECTION('',(1.,0.,2.35610055806292E-16));
#1216=DIRECTION('center_axis',(2.61228946970625E-16,2.92455005193807E-32,
-1.));
#1217=DIRECTION('ref_axis',(-1.,0.,-2.61228946970625E-16));
#1218=DIRECTION('center_axis',(2.61228946970625E-16,2.92455005193807E-32,
-1.));
#1219=DIRECTION('ref_axis',(1.,-1.29980002308359E-32,2.61228946970625E-16));
#1220=DIRECTION('center_axis',(-2.61228946970625E-16,-2.92455005193807E-32,
1.));
#1221=DIRECTION('ref_axis',(1.,0.,0.));
#1222=DIRECTION('center_axis',(0.,-1.,-2.92455005193807E-32));
#1223=DIRECTION('ref_axis',(-1.,0.,0.));
#1224=DIRECTION('center_axis',(-2.61228946970625E-16,-2.92455005193807E-32,
1.));
#1225=DIRECTION('ref_axis',(1.,-1.29980002308359E-32,2.46716227694479E-16));
#1226=DIRECTION('center_axis',(0.,0.,1.));
#1227=DIRECTION('ref_axis',(1.,0.,0.));
#1228=DIRECTION('',(0.,0.,1.));
#1229=DIRECTION('center_axis',(0.,0.,-1.));
#1230=DIRECTION('ref_axis',(1.,0.,0.));
#1231=DIRECTION('center_axis',(1.,2.46519032881566E-32,1.59221902357599E-16));
#1232=DIRECTION('ref_axis',(0.,-0.976296007119933,0.216439613938103));
#1233=DIRECTION('',(1.,2.46519032881566E-32,1.59221902357599E-16));
#1234=DIRECTION('center_axis',(6.7290083605416E-17,0.90630778703665,-0.422618261740699));
#1235=DIRECTION('ref_axis',(0.,0.422618261740699,0.90630778703665));
#1236=DIRECTION('center_axis',(-1.,0.,-2.35610055806292E-16));
#1237=DIRECTION('ref_axis',(0.,-0.707106781186549,0.707106781186546));
#1238=DIRECTION('',(-1.,0.,-2.35610055806292E-16));
#1239=DIRECTION('center_axis',(-2.35610055806292E-16,-2.92455005193807E-32,
1.));
#1240=DIRECTION('ref_axis',(1.,0.,2.35610055806292E-16));
#1241=DIRECTION('',(1.69030360920956E-16,1.,6.90707532889249E-32));
#1242=DIRECTION('',(1.,3.56203809454443E-17,2.35610055806292E-16));
#1243=DIRECTION('center_axis',(-2.35610055806292E-16,-2.92455005193807E-32,
1.));
#1244=DIRECTION('ref_axis',(1.,7.79880013850153E-33,2.35610055806292E-16));
#1245=DIRECTION('center_axis',(1.,-8.24243367976049E-17,-1.75376583232752E-17));
#1246=DIRECTION('ref_axis',(0.,-0.537299608346825,0.843391445812885));
#1247=DIRECTION('',(1.,-8.24243367976049E-17,-1.75376583232752E-17));
#1248=DIRECTION('center_axis',(0.874598163009807,-1.47833643154353E-16,
-0.484848484848485));
#1249=DIRECTION('ref_axis',(0.484848484848485,2.42749754467088E-16,0.874598163009807));
#1250=DIRECTION('',(-1.,8.24243367976049E-17,1.75376583232752E-17));
#1251=DIRECTION('center_axis',(6.7290083605416E-17,0.90630778703665,-0.422618261740699));
#1252=DIRECTION('ref_axis',(0.,0.422618261740699,0.90630778703665));
#1253=DIRECTION('',(0.44894787092204,0.377633907401174,0.809838527840883));
#1254=DIRECTION('center_axis',(2.35610055806292E-16,2.92455005193807E-32,
-1.));
#1255=DIRECTION('ref_axis',(-1.,0.,-3.08931624243522E-16));
#1256=DIRECTION('center_axis',(-1.93082265152201E-16,-1.,-7.4737623787096E-32));
#1257=DIRECTION('ref_axis',(1.,-1.93082265152201E-16,3.86164530304402E-16));
#1258=DIRECTION('center_axis',(2.35610055806292E-16,2.92455005193807E-32,
-1.));
#1259=DIRECTION('ref_axis',(1.,7.79880013850153E-33,2.22044604925031E-16));
#1260=DIRECTION('center_axis',(2.35610055806292E-16,2.92455005193807E-32,
-1.));
#1261=DIRECTION('ref_axis',(1.,7.79880013850153E-33,2.22044604925031E-16));
#1262=DIRECTION('center_axis',(0.,0.,1.));
#1263=DIRECTION('ref_axis',(1.,0.,0.));
#1264=DIRECTION('center_axis',(0.,0.,1.));
#1265=DIRECTION('ref_axis',(1.,0.,0.));
#1266=DIRECTION('',(0.,0.,1.));
#1267=DIRECTION('center_axis',(0.,0.,1.));
#1268=DIRECTION('ref_axis',(1.,0.,0.));
#1269=DIRECTION('center_axis',(0.,0.,1.));
#1270=DIRECTION('ref_axis',(1.,0.,0.));
#1271=DIRECTION('',(0.707106781186548,8.65956056235494E-17,-0.707106781186547));
#1272=DIRECTION('center_axis',(0.,0.,-1.));
#1273=DIRECTION('ref_axis',(0.,1.,0.));
#1274=DIRECTION('center_axis',(1.,0.,2.61228946970625E-16));
#1275=DIRECTION('ref_axis',(0.,-1.,0.));
#1276=DIRECTION('center_axis',(-0.874598163009807,1.47833643154353E-16,
0.484848484848485));
#1277=DIRECTION('ref_axis',(0.484848484848485,0.,0.874598163009807));
#1278=DIRECTION('center_axis',(-1.75376583232752E-17,8.43974242784145E-17,
-1.));
#1279=DIRECTION('ref_axis',(-1.,0.,1.75376583232752E-17));
#1280=DIRECTION('center_axis',(-0.874598163009807,-1.47833643154353E-16,
-0.484848484848485));
#1281=DIRECTION('ref_axis',(-0.484848484848485,0.,0.874598163009807));
#1282=CARTESIAN_POINT('',(0.,0.,0.));
#1283=CARTESIAN_POINT('Origin',(8.42424142998324,17.8484828599665,-32.));
#1284=CARTESIAN_POINT('',(8.42424142998324,18.8484828599665,-32.));
#1285=CARTESIAN_POINT('',(8.42424142998323,17.8484828599665,-33.));
#1286=CARTESIAN_POINT('Origin',(8.42424142998324,17.8484828599665,-32.));
#1287=CARTESIAN_POINT('',(9.42424142998323,17.8484828599665,-32.));
#1288=CARTESIAN_POINT('Origin',(8.42424142998324,17.8484828599665,-32.));
#1289=CARTESIAN_POINT('Origin',(8.42424142998323,17.8484828599665,-32.));
#1290=CARTESIAN_POINT('Origin',(15.4529841094578,1.,-1.));
#1291=CARTESIAN_POINT('',(15.4529841094578,0.,-1.));
#1292=CARTESIAN_POINT('',(14.578385946448,1.,-0.515151515151515));
#1293=CARTESIAN_POINT('Origin',(15.4529841094578,1.,-0.999999999999999));
#1294=CARTESIAN_POINT('',(15.4529841094578,1.,8.43974242784146E-17));
#1295=CARTESIAN_POINT('Origin',(15.4529841094578,1.,-1.));
#1296=CARTESIAN_POINT('Origin',(15.4529841094578,1.,-1.));
#1297=CARTESIAN_POINT('Origin',(8.42424142998323,1.,-32.));
#1298=CARTESIAN_POINT('',(9.42424142998323,1.,-32.));
#1299=CARTESIAN_POINT('',(8.42424142998323,1.,-33.));
#1300=CARTESIAN_POINT('Origin',(8.42424142998323,1.,-32.));
#1301=CARTESIAN_POINT('',(8.42424142998323,0.,-32.));
#1302=CARTESIAN_POINT('Origin',(8.42424142998323,1.,-32.));
#1303=CARTESIAN_POINT('Origin',(8.42424142998323,1.,-32.));
#1304=CARTESIAN_POINT('Origin',(-8.42424142998323,17.8484828599665,-32.));
#1305=CARTESIAN_POINT('',(-9.42424142998322,17.8484828599665,-32.));
#1306=CARTESIAN_POINT('',(-8.42424142998322,17.8484828599665,-33.));
#1307=CARTESIAN_POINT('Origin',(-8.42424142998322,17.8484828599665,-32.));
#1308=CARTESIAN_POINT('',(-8.42424142998323,18.8484828599665,-32.));
#1309=CARTESIAN_POINT('Origin',(-8.42424142998323,17.8484828599665,-32.));
#1310=CARTESIAN_POINT('Origin',(-8.42424142998322,17.8484828599665,-32.));
#1311=CARTESIAN_POINT('Origin',(8.42424142998323,19.8484828599665,-16.2216946626429));
#1312=CARTESIAN_POINT('',(9.42424142998323,17.8608079678989,-16.));
#1313=CARTESIAN_POINT('',(9.42424142998323,17.8484828599665,-16.2216946626429));
#1314=CARTESIAN_POINT('Origin',(9.42424142998323,19.8484828599665,-16.2216946626429));
#1315=CARTESIAN_POINT('',(8.42424142998323,18.8484828599665,-16.2216946626429));
#1316=CARTESIAN_POINT('Origin',(8.42424142998323,17.8484828599665,-16.2216946626429));
#1317=CARTESIAN_POINT('',(8.42424142999015,18.8777515153418,-15.9815266869191));
#1318=CARTESIAN_POINT('Origin',(8.42424142998323,19.8484828599665,-16.2216946626429));
#1319=CARTESIAN_POINT('',(9.41784728894404,17.9731262374929,-16.0115341270142));
#1320=CARTESIAN_POINT('Ctrl Pts',(8.42424142999015,18.8777515153418,-15.9815266869191));
#1321=CARTESIAN_POINT('Ctrl Pts',(8.42575500026978,18.87766482949,-15.9818770611655));
#1322=CARTESIAN_POINT('Ctrl Pts',(8.42726857748615,18.8775750045221,-15.982226628938));
#1323=CARTESIAN_POINT('Ctrl Pts',(8.54782394319024,18.8701704736979,-16.0100051770288));
#1324=CARTESIAN_POINT('Ctrl Pts',(8.66670018107611,18.8434472067944,-16.0324183008302));
#1325=CARTESIAN_POINT('Ctrl Pts',(8.88388000986488,18.754712574735,-16.0641452146229));
#1326=CARTESIAN_POINT('Ctrl Pts',(8.98196355502617,18.6955941018023,-16.0740837101276));
#1327=CARTESIAN_POINT('Ctrl Pts',(9.16557912776948,18.5387778527706,-16.0822037261015));
#1328=CARTESIAN_POINT('Ctrl Pts',(9.24612655678613,18.4393936917516,-16.0787963338275));
#1329=CARTESIAN_POINT('Ctrl Pts',(9.36580590647442,18.216705190619,-16.0561330940894));
#1330=CARTESIAN_POINT('Ctrl Pts',(9.40361586619649,18.0962758448229,-16.0372056029103));
#1331=CARTESIAN_POINT('Ctrl Pts',(9.41784728894404,17.9731262374929,-16.0115341270142));
#1332=CARTESIAN_POINT('Ctrl Pts',(9.41784728894404,17.9731262374929,-16.0115341270142));
#1333=CARTESIAN_POINT('Ctrl Pts',(9.42202247794309,17.9369968290084,-16.0040026759674));
#1334=CARTESIAN_POINT('Ctrl Pts',(9.42424142998323,17.8960935561843,-16.));
#1335=CARTESIAN_POINT('Ctrl Pts',(9.42424142998323,17.8608079678989,-16.));
#1336=CARTESIAN_POINT('Origin',(16.5963663417719,1.,-1.));
#1337=CARTESIAN_POINT('',(16.5963663417719,1.,7.39280129698298E-17));
#1338=CARTESIAN_POINT('',(17.4709645047817,1.,-1.48484848484849));
#1339=CARTESIAN_POINT('Origin',(16.5963663417719,1.,-1.));
#1340=CARTESIAN_POINT('',(16.5963663417719,0.,-0.999999999999999));
#1341=CARTESIAN_POINT('Origin',(16.5963663417719,1.,-1.));
#1342=CARTESIAN_POINT('Origin',(16.5963663417719,1.,-1.));
#1343=CARTESIAN_POINT('Origin',(12.8986169665176,1.,-1.));
#1344=CARTESIAN_POINT('',(12.8986169665176,1.,1.38777878078145E-16));
#1345=CARTESIAN_POINT('',(12.8986169665176,0.,-1.));
#1346=CARTESIAN_POINT('Origin',(10.262639099775,1.,-12.4251490598898));
#1347=CARTESIAN_POINT('',(9.42424142998323,1.,-16.));
#1348=CARTESIAN_POINT('',(11.1372372627848,1.,-12.9099975447383));
#1349=CARTESIAN_POINT('',(8.42424142998323,0.,-15.7413587112077));
#1350=CARTESIAN_POINT('',(10.262639099775,0.,-12.4251490598898));
#1351=CARTESIAN_POINT('Origin',(8.42424142998323,1.,-15.7413587112077));
#1352=CARTESIAN_POINT('Origin',(-8.42424142998322,1.,-32.));
#1353=CARTESIAN_POINT('',(-8.42424142998322,0.,-32.));
#1354=CARTESIAN_POINT('',(-8.42424142998322,1.,-33.));
#1355=CARTESIAN_POINT('Origin',(-8.42424142998323,1.,-32.));
#1356=CARTESIAN_POINT('',(-9.42424142998322,1.,-32.));
#1357=CARTESIAN_POINT('Origin',(-8.42424142998322,1.,-32.));
#1358=CARTESIAN_POINT('Origin',(-8.42424142998322,1.,-32.));
#1359=CARTESIAN_POINT('Origin',(16.5963663417719,24.7397198133289,-0.999999999999998));
#1360=CARTESIAN_POINT('',(16.5963663417719,25.6460276003656,-1.4226182617407));
#1361=CARTESIAN_POINT('',(17.4709645047817,24.7397198133289,-1.48484848484848));
#1362=CARTESIAN_POINT('Origin',(16.5963663417719,24.7397198133289,-0.999999999999999));
#1363=CARTESIAN_POINT('',(16.5963663417719,24.7397198133289,2.08796862961462E-15));
#1364=CARTESIAN_POINT('Origin',(16.5963663417719,24.7397198133289,-0.999999999999998));
#1365=CARTESIAN_POINT('Origin',(16.5963663417719,24.7397198133289,-0.999999999999999));
#1366=CARTESIAN_POINT('Origin',(-16.5963663417719,24.7397198133289,-0.999999999999999));
#1367=CARTESIAN_POINT('',(-16.5963663417719,25.6460276003656,-1.4226182617407));
#1368=CARTESIAN_POINT('',(-16.5963663417719,24.7397198133289,2.7372999758056E-15));
#1369=CARTESIAN_POINT('Origin',(-16.5963663417719,24.7397198133289,-0.999999999999997));
#1370=CARTESIAN_POINT('',(-17.4709645047817,24.7397198133289,-1.48484848484848));
#1371=CARTESIAN_POINT('Origin',(-16.5963663417719,24.7397198133289,-0.999999999999999));
#1372=CARTESIAN_POINT('Origin',(-16.5963663417719,24.7397198133289,-0.999999999999999));
#1373=CARTESIAN_POINT('Origin',(-7.41119003531205,17.0135800019221,-17.5687602943865));
#1374=CARTESIAN_POINT('',(-8.62653031756572,18.9421750729298,-15.7990764009022));
#1375=CARTESIAN_POINT('',(-9.50112848057552,18.0358672858932,-15.86130662401));
#1376=CARTESIAN_POINT('Origin',(-8.62653031756571,18.0358672858932,-15.3764581391615));
#1377=CARTESIAN_POINT('',(-8.28578819832186,17.0135800019221,-18.0536087792349));
#1378=CARTESIAN_POINT('',(-7.41119003531205,17.9198877889587,-17.9913785561272));
#1379=CARTESIAN_POINT('Ctrl Pts',(-8.62653031756572,18.9421750729298,-15.7990764009022));
#1380=CARTESIAN_POINT('Ctrl Pts',(-8.56161891797534,18.9148748594197,-15.8576218977061));
#1381=CARTESIAN_POINT('Ctrl Pts',(-8.4937669610542,18.8932658402268,-15.9188195694885));
#1382=CARTESIAN_POINT('Ctrl Pts',(-8.42424142998496,18.8777515153407,-15.9815266869238));
#1383=CARTESIAN_POINT('Ctrl Pts',(-8.85875817184508,18.8928649866678,-15.904822222142));
#1384=CARTESIAN_POINT('Ctrl Pts',(-8.79743028950922,18.8703521190127,-15.9713422836491));
#1385=CARTESIAN_POINT('Ctrl Pts',(-8.73332446757519,18.8543284672377,-16.0399788752256));
#1386=CARTESIAN_POINT('Ctrl Pts',(-8.66813706901757,18.8462293772219,-16.1089355449529));
#1387=CARTESIAN_POINT('Ctrl Pts',(-9.26266262823889,18.637946186424,-16.0098629928924));
#1388=CARTESIAN_POINT('Ctrl Pts',(-9.20717642738778,18.6105993896311,-16.0975718796085));
#1389=CARTESIAN_POINT('Ctrl Pts',(-9.14976219268594,18.5928053420248,-16.1879930512492));
#1390=CARTESIAN_POINT('Ctrl Pts',(-9.09157692892952,18.5844010322591,-16.2788979191761));
#1391=CARTESIAN_POINT('Ctrl Pts',(-9.46543985071977,18.2163529548567,-15.9256838698664));
#1392=CARTESIAN_POINT('Ctrl Pts',(-9.40496515260484,18.1699023096298,-16.0348586952107));
#1393=CARTESIAN_POINT('Ctrl Pts',(-9.34183074294583,18.1343200019848,-16.1485383869939));
#1394=CARTESIAN_POINT('Ctrl Pts',(-9.2775392577536,18.1100481025468,-16.2646299913295));
#1395=CARTESIAN_POINT('Ctrl Pts',(-9.50112848057552,18.0358672858932,-15.86130662401));
#1396=CARTESIAN_POINT('Ctrl Pts',(-9.43621708098514,17.9812668588729,-15.9783976176178));
#1397=CARTESIAN_POINT('Ctrl Pts',(-9.368365124064,17.9380488204871,-16.1007929611825));
#1398=CARTESIAN_POINT('Ctrl Pts',(-9.29883959299476,17.9070201707149,-16.2262071960531));
#1399=CARTESIAN_POINT('',(-9.41784728894404,17.9731262374929,-16.0115341270142));
#1400=CARTESIAN_POINT('Origin',(-9.03255712394444,19.8484828599665,-16.7065431474914));
#1401=CARTESIAN_POINT('',(-8.42424142998323,18.8777515153411,-15.981526686922));
#1402=CARTESIAN_POINT('Origin',(-8.15795896093464,19.8484828599665,-16.2216946626429));
#1403=CARTESIAN_POINT('Ctrl Pts',(-8.42424142998697,18.8777515153411,-15.981526686922));
#1404=CARTESIAN_POINT('Ctrl Pts',(-8.42575500026532,18.8776648294894,-15.9818770611681));
#1405=CARTESIAN_POINT('Ctrl Pts',(-8.42726857748654,18.8775750045218,-15.9822266289392));
#1406=CARTESIAN_POINT('Ctrl Pts',(-8.54782394325688,18.8701704736992,-16.0100051770225));
#1407=CARTESIAN_POINT('Ctrl Pts',(-8.66670018108728,18.8434472067899,-16.0324183008319));
#1408=CARTESIAN_POINT('Ctrl Pts',(-8.88388000986485,18.754712574735,-16.0641452146229));
#1409=CARTESIAN_POINT('Ctrl Pts',(-8.98196355502615,18.6955941018023,-16.0740837101276));
#1410=CARTESIAN_POINT('Ctrl Pts',(-9.16557912776947,18.5387778527706,-16.0822037261015));
#1411=CARTESIAN_POINT('Ctrl Pts',(-9.24612655678612,18.4393936917517,-16.0787963338275));
#1412=CARTESIAN_POINT('Ctrl Pts',(-9.36580590647442,18.216705190619,-16.0561330940894));
#1413=CARTESIAN_POINT('Ctrl Pts',(-9.40361586619649,18.0962758448229,-16.0372056029103));
#1414=CARTESIAN_POINT('Ctrl Pts',(-9.41784728894404,17.9731262374929,-16.0115341270142));
#1415=CARTESIAN_POINT('Origin',(-16.5963663417719,1.,-1.));
#1416=CARTESIAN_POINT('',(-17.4709645047817,1.,-1.48484848484848));
#1417=CARTESIAN_POINT('',(-16.5963663417719,1.,6.39508936590993E-16));
#1418=CARTESIAN_POINT('Origin',(-16.5963663417719,1.,-1.));
#1419=CARTESIAN_POINT('',(-16.5963663417719,0.,-0.999999999999999));
#1420=CARTESIAN_POINT('Origin',(-16.5963663417719,1.,-1.));
#1421=CARTESIAN_POINT('Origin',(-16.5963663417719,1.,-0.999999999999999));
#1422=CARTESIAN_POINT('Origin',(-8.49882067617696,1.,-15.6068282882859));
#1423=CARTESIAN_POINT('',(-8.42424142998323,0.,-15.7413587112077));
#1424=CARTESIAN_POINT('',(-8.49882067617696,0.,-15.6068282882859));
#1425=CARTESIAN_POINT('',(-9.42424142998323,1.,-16.));
#1426=CARTESIAN_POINT('',(-9.37341883918677,1.,-16.0916767731343));
#1427=CARTESIAN_POINT('Origin',(-8.42424142998323,1.,-15.7413587112077));
#1428=CARTESIAN_POINT('Origin',(-15.4529841094578,1.,-1.));
#1429=CARTESIAN_POINT('',(-15.4529841094578,0.,-1.));
#1430=CARTESIAN_POINT('',(-15.4529841094578,1.,6.35998570666403E-16));
#1431=CARTESIAN_POINT('Origin',(-15.4529841094578,1.,-0.999999999999999));
#1432=CARTESIAN_POINT('',(-14.578385946448,1.,-0.515151515151515));
#1433=CARTESIAN_POINT('Origin',(-15.4529841094578,1.,-1.));
#1434=CARTESIAN_POINT('Origin',(-15.4529841094578,1.,-1.));
#1435=CARTESIAN_POINT('Origin',(-7.62422251316715,1.,-15.1219798034374));
#1436=CARTESIAN_POINT('',(-8.24621125123532,0.,-14.));
#1437=CARTESIAN_POINT('',(-7.65719616186137,1.,-13.));
#1438=CARTESIAN_POINT('Origin',(-8.24621125123532,1.,-14.));
#1439=CARTESIAN_POINT('',(-6.74962435015734,1.,-14.6371313185889));
#1440=CARTESIAN_POINT('',(-7.62422251316715,0.,-15.1219798034374));
#1441=CARTESIAN_POINT('Origin',(-15.4529841094578,-4.88294381052839E-15,
-1.));
#1442=CARTESIAN_POINT('',(-14.578385946448,22.7617437313566,-0.515151515151514));
#1443=CARTESIAN_POINT('',(-15.4529841094578,23.6363418943664,2.54995788756109E-15));
#1444=CARTESIAN_POINT('Origin',(-15.4529841094578,23.6363418943664,-0.999999999999999));
#1445=CARTESIAN_POINT('',(-15.4529841094578,-4.96734123480681E-15,5.55111512312578E-16));
#1446=CARTESIAN_POINT('',(-14.578385946448,-4.73511016737404E-15,-0.515151515151515));
#1447=CARTESIAN_POINT('Origin',(12.8986169665176,1.,-1.));
#1448=CARTESIAN_POINT('',(12.8986169665176,1.,1.38777878078145E-16));
#1449=CARTESIAN_POINT('',(12.8986169665176,0.,-1.));
#1450=CARTESIAN_POINT('Origin',(-16.5963663417719,-5.12970572819237E-15,
-1.));
#1451=CARTESIAN_POINT('',(-17.4709645047817,-5.27753937134672E-15,-1.48484848484848));
#1452=CARTESIAN_POINT('',(-16.5963663417719,-5.21410315247078E-15,5.55111512312578E-16));
#1453=CARTESIAN_POINT('Origin',(12.8747247827107,24.7397198133289,-0.999999999999998));
#1454=CARTESIAN_POINT('',(12.8747247827107,24.7397198133289,2.22044604925031E-15));
#1455=CARTESIAN_POINT('',(12.8747247827107,25.6460276003656,-1.4226182617407));
#1456=CARTESIAN_POINT('Origin',(-8.42424142998323,1.,-11.4278651453561));
#1457=CARTESIAN_POINT('',(-9.42424142998323,1.,-11.4278651453561));
#1458=CARTESIAN_POINT('',(-8.42424142998323,0.,-11.4278651453561));
#1459=CARTESIAN_POINT('Origin',(16.5963663417719,-1.18151504556873E-15,
-1.));
#1460=CARTESIAN_POINT('',(16.5963663417719,-1.26591246984714E-15,0.));
#1461=CARTESIAN_POINT('',(17.4709645047817,-1.32934868872308E-15,-1.48484848484849));
#1462=CARTESIAN_POINT('Origin',(8.91384381630968,18.2775419350166,-14.8581851816047));
#1463=CARTESIAN_POINT('',(9.50112848057552,18.0358672858932,-15.86130662401));
#1464=CARTESIAN_POINT('',(8.62653031756572,18.9421750729298,-15.7990764009022));
#1465=CARTESIAN_POINT('Origin',(8.62653031756571,18.0358672858932,-15.3764581391615));
#1466=CARTESIAN_POINT('',(8.91384381630968,19.1838497220532,-15.2808034433454));
#1467=CARTESIAN_POINT('',(9.78844197931949,18.2775419350166,-15.3430336664531));
#1468=CARTESIAN_POINT('Ctrl Pts',(9.50112848057552,18.0358672858932,-15.86130662401));
#1469=CARTESIAN_POINT('Ctrl Pts',(9.43621708098676,17.9812668588742,-15.9783976176149));
#1470=CARTESIAN_POINT('Ctrl Pts',(9.36836512406738,17.9380488204892,-16.1007929611764));
#1471=CARTESIAN_POINT('Ctrl Pts',(9.29883959299995,17.9070201707172,-16.2262071960437));
#1472=CARTESIAN_POINT('Ctrl Pts',(9.45354364076785,18.2765148445113,-15.9471429518185));
#1473=CARTESIAN_POINT('Ctrl Pts',(9.39464023967303,18.2328946252773,-16.0537125594329));
#1474=CARTESIAN_POINT('Ctrl Pts',(9.33286157656549,18.1995975841329,-16.164436864432));
#1475=CARTESIAN_POINT('Ctrl Pts',(9.27043914601122,18.1777240798258,-16.2774375897466));
#1476=CARTESIAN_POINT('Ctrl Pts',(9.2075438627687,18.6950633500201,-16.0059411311533));
#1477=CARTESIAN_POINT('Ctrl Pts',(9.15144366646296,18.6700793324636,-16.089903790573));
#1478=CARTESIAN_POINT('Ctrl Pts',(9.09342680572295,18.654316738198,-16.176339862394));
#1479=CARTESIAN_POINT('Ctrl Pts',(9.03454010886113,18.6477071668756,-16.2629411074991));
#1480=CARTESIAN_POINT('Ctrl Pts',(8.80070120827524,18.9051925082333,-15.878385766832));
#1481=CARTESIAN_POINT('Ctrl Pts',(8.73841468576719,18.8813883292111,-15.9428925144674));
#1482=CARTESIAN_POINT('Ctrl Pts',(8.67351991212173,18.8641835278457,-16.0096922265754));
#1483=CARTESIAN_POINT('Ctrl Pts',(8.60716315926437,18.8541099117523,-16.0770833304406));
#1484=CARTESIAN_POINT('Ctrl Pts',(8.62653031756572,18.9421750729298,-15.7990764009022));
#1485=CARTESIAN_POINT('Ctrl Pts',(8.56161891797695,18.9148748594203,-15.8576218977047));
#1486=CARTESIAN_POINT('Ctrl Pts',(8.49376696105757,18.8932658402278,-15.9188195694854));
#1487=CARTESIAN_POINT('Ctrl Pts',(8.42424142999015,18.8777515153418,-15.9815266869191));
#1488=CARTESIAN_POINT('Origin',(8.15795896093464,19.8484828599665,-16.2216946626429));
#1489=CARTESIAN_POINT('Origin',(9.03255712394444,19.8484828599665,-16.7065431474914));
#1490=CARTESIAN_POINT('Origin',(-8.42424142998323,19.8484828599665,-16.2216946626429));
#1491=CARTESIAN_POINT('',(-8.42424142998323,18.8484828599665,-16.2216946626429));
#1492=CARTESIAN_POINT('Origin',(-8.42424142998323,19.8484828599665,-16.2216946626429));
#1493=CARTESIAN_POINT('',(-9.42424142998323,17.8484828599665,-16.2216946626429));
#1494=CARTESIAN_POINT('Origin',(-8.42424142998323,17.8484828599665,-16.2216946626429));
#1495=CARTESIAN_POINT('',(-9.42424142998323,17.8608079678989,-16.));
#1496=CARTESIAN_POINT('Origin',(-9.42424142998323,19.8484828599665,-16.2216946626429));
#1497=CARTESIAN_POINT('Ctrl Pts',(-9.42424142998323,17.8608079678989,-16.));
#1498=CARTESIAN_POINT('Ctrl Pts',(-9.42424142998323,17.8960935561843,-16.));
#1499=CARTESIAN_POINT('Ctrl Pts',(-9.42202247794309,17.9369968290084,-16.0040026759674));
#1500=CARTESIAN_POINT('Ctrl Pts',(-9.41784728894404,17.9731262374929,-16.0115341270142));
#1501=CARTESIAN_POINT('Origin',(-8.42424142998323,17.8484828599665,-16.));
#1502=CARTESIAN_POINT('',(-9.42424142998323,17.8484828599665,-16.));
#1503=CARTESIAN_POINT('',(-8.42424142998323,18.8484828599665,-16.));
#1504=CARTESIAN_POINT('Origin',(-8.42424142998322,4.67928008310092E-31,
-32.));
#1505=CARTESIAN_POINT('',(-8.42424142998322,4.97173508829472E-31,-33.));
#1506=CARTESIAN_POINT('',(-9.42424142998322,4.67928008310092E-31,-32.));
#1507=CARTESIAN_POINT('Origin',(3.75155910800447,1.,-32.));
#1508=CARTESIAN_POINT('',(3.75155910800447,1.,-33.));
#1509=CARTESIAN_POINT('',(3.75155910800447,0.,-32.));
#1510=CARTESIAN_POINT('Origin',(8.42424142998323,17.8484828599665,-16.));
#1511=CARTESIAN_POINT('',(8.42424142998323,18.8484828599665,-16.));
#1512=CARTESIAN_POINT('',(9.42424142998323,17.8484828599665,-16.));
#1513=CARTESIAN_POINT('Origin',(-4.71212071499161,17.8484828599665,-32.));
#1514=CARTESIAN_POINT('',(-4.71212071499161,17.8484828599665,-33.));
#1515=CARTESIAN_POINT('',(-4.71212071499161,18.8484828599665,-32.));
#1516=CARTESIAN_POINT('Origin',(8.42424142998323,1.,-11.4278651453561));
#1517=CARTESIAN_POINT('',(8.42424142998323,0.,-11.4278651453561));
#1518=CARTESIAN_POINT('',(9.42424142998323,1.,-11.4278651453561));
#1519=CARTESIAN_POINT('Origin',(8.42424142998323,9.42424142998323,-32.));
#1520=CARTESIAN_POINT('',(8.42424142998323,9.42424142998323,-33.));
#1521=CARTESIAN_POINT('',(9.42424142998323,9.42424142998323,-32.));
#1522=CARTESIAN_POINT('Origin',(15.4529841094578,-9.34753127904749E-16,
-1.));
#1523=CARTESIAN_POINT('',(15.4529841094578,23.6363418943664,1.99484637524851E-15));
#1524=CARTESIAN_POINT('',(14.578385946448,22.7617437313566,-0.515151515151514));
#1525=CARTESIAN_POINT('Origin',(15.4529841094578,23.6363418943664,-0.999999999999999));
#1526=CARTESIAN_POINT('',(14.578385946448,-7.86919484750395E-16,-0.515151515151516));
#1527=CARTESIAN_POINT('',(15.4529841094578,-1.01915055218316E-15,0.));
#1528=CARTESIAN_POINT('Origin',(9.38804093676521,1.,-11.9403005750413));
#1529=CARTESIAN_POINT('',(7.65719616186137,1.,-13.));
#1530=CARTESIAN_POINT('',(8.24621125123532,0.,-14.));
#1531=CARTESIAN_POINT('Origin',(8.24621125123532,1.,-14.));
#1532=CARTESIAN_POINT('',(9.38804093676521,0.,-11.9403005750413));
#1533=CARTESIAN_POINT('',(8.5134427737554,1.,-11.4554520901928));
#1534=CARTESIAN_POINT('Origin',(9.42424142998323,0.,-16.));
#1535=CARTESIAN_POINT('',(9.42424142998323,0.,-16.));
#1536=CARTESIAN_POINT('Origin',(-9.42424142998323,18.8484828599665,-16.));
#1537=CARTESIAN_POINT('',(-0.984453790794054,18.8484828599665,-16.2216946626429));
#1538=CARTESIAN_POINT('Origin',(-9.42424142998323,0.,-16.));
#1539=CARTESIAN_POINT('',(-9.42424142998323,0.,-16.));
#1540=CARTESIAN_POINT('Origin',(-6.80044694095381,4.4350092946306E-16,-14.5454545454545));
#1541=CARTESIAN_POINT('',(-7.65719616186137,16.937272077544,-13.));
#1542=CARTESIAN_POINT('',(-7.65719616186137,-4.97807165723842E-16,-13.));
#1543=CARTESIAN_POINT('',(-14.5438875554592,22.7300341073298,-0.577381738259299));
#1544=CARTESIAN_POINT('',(-5.95946136792524,15.5092171395658,-16.0624736973621));
#1545=CARTESIAN_POINT('Origin',(-14.3096018771437,23.6363418943664,-0.999999999999997));
#1546=CARTESIAN_POINT('Origin',(7.50311821600894,0.,-6.85573029071226));
#1547=CARTESIAN_POINT('',(3.75155910800447,0.,-14.));
#1548=CARTESIAN_POINT('Origin',(4.44089209850063E-15,4.97173508829472E-31,
-33.));
#1549=CARTESIAN_POINT('',(-3.25,9.42424142998323,-33.));
#1550=CARTESIAN_POINT('Origin',(2.61228946970625E-16,9.42424142998323,-33.));
#1551=CARTESIAN_POINT('Origin',(-3.08148791101958E-32,9.42424142998323,
-32.));
#1552=CARTESIAN_POINT('',(-2.25,9.42424142998323,-32.));
#1553=CARTESIAN_POINT('Origin',(-3.25,9.42424142998323,-32.));
#1554=CARTESIAN_POINT('Origin',(-3.08148791101958E-32,9.42424142998323,
-32.));
#1555=CARTESIAN_POINT('Origin',(-3.08148791101958E-32,9.42424142998323,
-33.));
#1556=CARTESIAN_POINT('',(-2.25,9.42424142998323,-29.8));
#1557=CARTESIAN_POINT('',(-2.25,9.42424142998323,-33.));
#1558=CARTESIAN_POINT('Origin',(-3.08148791101958E-32,9.42424142998323,
-29.8));
#1559=CARTESIAN_POINT('Origin',(-0.984453790794054,19.8484828599665,-16.2216946626429));
#1560=CARTESIAN_POINT('',(-0.984453790794054,18.9421750729298,-15.7990764009022));
#1561=CARTESIAN_POINT('Origin',(7.45533384839512,23.0869897670127,-6.91049260521182));
#1562=CARTESIAN_POINT('Origin',(3.75155910800447,1.,-14.));
#1563=CARTESIAN_POINT('',(3.75155910800447,1.,-13.));
#1564=CARTESIAN_POINT('Origin',(-7.06830167418875E-16,-8.77365015581422E-32,
-13.));
#1565=CARTESIAN_POINT('',(7.65719616186137,16.937272077544,-13.));
#1566=CARTESIAN_POINT('',(7.65719616186137,-4.97807165723843E-16,-13.));
#1567=CARTESIAN_POINT('',(3.72766692419756,16.937272077544,-13.));
#1568=CARTESIAN_POINT('',(4.75,9.42424142998322,-13.));
#1569=CARTESIAN_POINT('Origin',(-2.35610055806292E-16,9.42424142998323,
-13.));
#1570=CARTESIAN_POINT('Origin',(12.8747247827107,23.6363418943664,-0.999999999999998));
#1571=CARTESIAN_POINT('',(14.5438875554592,22.7300341073298,-0.577381738259299));
#1572=CARTESIAN_POINT('',(12.8747247827107,22.7300341073298,-0.577381738259299));
#1573=CARTESIAN_POINT('Origin',(14.3096018771436,23.6363418943664,-0.999999999999998));
#1574=CARTESIAN_POINT('',(12.8747247827107,23.6363418943664,2.08166817117217E-15));
#1575=CARTESIAN_POINT('Origin',(7.45533384839512,20.3680664059027,-5.64263781998972));
#1576=CARTESIAN_POINT('',(7.46211514892287,16.7731790726603,-13.3518985845803));
#1577=CARTESIAN_POINT('Origin',(-3.08148791101958E-32,9.42424142998323,
-14.));
#1578=CARTESIAN_POINT('',(3.75,9.42424142998322,-14.));
#1579=CARTESIAN_POINT('Origin',(4.75,9.42424142998323,-14.));
#1580=CARTESIAN_POINT('',(-3.75,9.42424142998323,-14.));
#1581=CARTESIAN_POINT('Origin',(-3.08148791101958E-32,9.42424142998323,
-14.));
#1582=CARTESIAN_POINT('Origin',(-3.08148791101958E-32,9.42424142998323,
-14.));
#1583=CARTESIAN_POINT('Origin',(-3.08148791101958E-32,9.42424142998323,
-28.5));
#1584=CARTESIAN_POINT('',(-3.75,9.42424142998323,-28.5));
#1585=CARTESIAN_POINT('Origin',(-3.08148791101958E-32,9.42424142998323,
-28.5));
#1586=CARTESIAN_POINT('',(-3.75,9.42424142998323,-28.5));
#1587=CARTESIAN_POINT('Origin',(-3.08148791101958E-32,9.42424142998323,
-29.15));
#1588=CARTESIAN_POINT('',(-3.55,9.42424142998323,-28.5));
#1589=CARTESIAN_POINT('Origin',(-3.08148791101958E-32,9.42424142998323,
-28.5));
#1590=CARTESIAN_POINT('',(-2.9,9.42424142998323,-29.15));
#1591=CARTESIAN_POINT('Origin',(0.,9.42424142998323,-28.5));
#1592=CARTESIAN_POINT('Origin',(9.42424142998323,18.8484828599665,-16.));
#1593=CARTESIAN_POINT('Origin',(6.80044694095381,4.4350092946306E-16,-14.5454545454545));
#1594=CARTESIAN_POINT('Origin',(18.2941157170263,0.,-3.58782819219824E-32));
#1595=CARTESIAN_POINT('Origin',(-9.42424142998323,0.,-16.));
#1596=UNCERTAINTY_MEASURE_WITH_UNIT(LENGTH_MEASURE(0.01),#1600,
'DISTANCE_ACCURACY_VALUE',
'Maximum model space distance between geometric entities at asserted c
onnectivities');
#1597=UNCERTAINTY_MEASURE_WITH_UNIT(LENGTH_MEASURE(0.01),#1600,
'DISTANCE_ACCURACY_VALUE',
'Maximum model space distance between geometric entities at asserted c
onnectivities');
#1598=(
GEOMETRIC_REPRESENTATION_CONTEXT(3)
GLOBAL_UNCERTAINTY_ASSIGNED_CONTEXT((#1596))
GLOBAL_UNIT_ASSIGNED_CONTEXT((#1600,#1602,#1603))
REPRESENTATION_CONTEXT('','3D')
);
#1599=(
GEOMETRIC_REPRESENTATION_CONTEXT(3)
GLOBAL_UNCERTAINTY_ASSIGNED_CONTEXT((#1597))
GLOBAL_UNIT_ASSIGNED_CONTEXT((#1600,#1602,#1603))
REPRESENTATION_CONTEXT('','3D')
);
#1600=(
LENGTH_UNIT()
NAMED_UNIT(*)
SI_UNIT(.MILLI.,.METRE.)
);
#1601=(
LENGTH_UNIT()
NAMED_UNIT(*)
SI_UNIT($,.METRE.)
);
#1602=(
NAMED_UNIT(*)
PLANE_ANGLE_UNIT()
SI_UNIT($,.RADIAN.)
);
#1603=(
NAMED_UNIT(*)
SI_UNIT($,.STERADIAN.)
SOLID_ANGLE_UNIT()
);
#1604=SHAPE_DEFINITION_REPRESENTATION(#1605,#1606);
#1605=PRODUCT_DEFINITION_SHAPE('',$,#1608);
#1606=SHAPE_REPRESENTATION('',(#876),#1598);
#1607=PRODUCT_DEFINITION_CONTEXT('part definition',#1612,'design');
#1608=PRODUCT_DEFINITION('tulgryd','tulgryd v22',#1609,#1607);
#1609=PRODUCT_DEFINITION_FORMATION('',$,#1614);
#1610=PRODUCT_RELATED_PRODUCT_CATEGORY('tulgryd v22','tulgryd v22',(#1614));
#1611=APPLICATION_PROTOCOL_DEFINITION('international standard',
'automotive_design',2009,#1612);
#1612=APPLICATION_CONTEXT(
'Core Data for Automotive Mechanical Design Process');
#1613=PRODUCT_CONTEXT('part definition',#1612,'mechanical');
#1614=PRODUCT('tulgryd','tulgryd v22',$,(#1613));
#1615=PRESENTATION_STYLE_ASSIGNMENT((#1616));
#1616=SURFACE_STYLE_USAGE(.BOTH.,#1617);
#1617=SURFACE_SIDE_STYLE('',(#1618));
#1618=SURFACE_STYLE_FILL_AREA(#1619);
#1619=FILL_AREA_STYLE('Steel - Satin',(#1620));
#1620=FILL_AREA_STYLE_COLOUR('Steel - Satin',#1621);
#1621=COLOUR_RGB('Steel - Satin',0.627450980392157,0.627450980392157,0.627450980392157);
ENDSEC;
END-ISO-10303-21;
