solid OpenSCAD_Model
  facet normal 0 0 -1
    outer loop
      vertex -11.577583139031148 -2.666181241970323 0
      vertex -11.146181241970323 0.05758313903114742 0
      vertex -11.146181241970323 -3.0975831390311477 0
    endloop
  endfacet
  facet normal -0.8910065241883688 -0.4539904997395452 0
    outer loop
      vertex -11.577583139031148 -2.666181241970323 0
      vertex -11.854560206775549 -2.1225831390311476 8
      vertex -11.854560206775549 -2.1225831390311476 0
    endloop
  endfacet
  facet normal -0.7071067811865475 -0.7071067811865475 0
    outer loop
      vertex -11.577583139031148 -2.666181241970323 0
      vertex -11.146181241970323 -3.0975831390311477 0
      vertex -11.146181241970323 -3.0975831390311477 8
    endloop
  endfacet
  facet normal 0 0 -1
    outer loop
      vertex -11.854560206775549 -2.1225831390311476 0
      vertex -11.95 -1.52 0
      vertex -11.854560206775549 -0.9174168609688526 0
    endloop
  endfacet
  facet normal 0 0 -1
    outer loop
      vertex -11.854560206775549 -2.1225831390311476 0
      vertex -11.854560206775549 -0.9174168609688526 0
      vertex -11.577583139031148 -0.37381875802967746 0
    endloop
  endfacet
  facet normal 0 0 -1
    outer loop
      vertex -11.577583139031148 -2.666181241970323 0
      vertex -11.854560206775549 -2.1225831390311476 0
      vertex -11.577583139031148 -0.37381875802967746 0
    endloop
  endfacet
  facet normal 0 0 -1
    outer loop
      vertex -11.577583139031148 -0.37381875802967746 0
      vertex -11.20376438100147 -6.938893903907228e-18 0
      vertex -11.577583139031148 -2.666181241970323 0
    endloop
  endfacet
  facet normal 0 0 -1
    outer loop
      vertex -11.577583139031148 -2.666181241970323 0
      vertex -11.20376438100147 -6.938893903907228e-18 0
      vertex -11.146181241970323 0.05758313903114742 0
    endloop
  endfacet
  facet normal -0.9876883405951377 -0.15643446504023062 0
    outer loop
      vertex -11.854560206775549 -2.1225831390311476 0
      vertex -11.95 -1.52 8
      vertex -11.95 -1.52 0
    endloop
  endfacet
  facet normal -0.9876883405951378 0.15643446504023067 0
    outer loop
      vertex -11.95 -1.52 0
      vertex -11.854560206775549 -0.9174168609688526 8
      vertex -11.854560206775549 -0.9174168609688526 0
    endloop
  endfacet
  facet normal -0.8910065241883688 0.4539904997395453 0
    outer loop
      vertex -11.854560206775549 -0.9174168609688526 0
      vertex -11.577583139031148 -0.37381875802967746 8
      vertex -11.577583139031148 -0.37381875802967746 0
    endloop
  endfacet
  facet normal -0.7071067811865469 0.7071067811865481 0
    outer loop
      vertex -11.577583139031148 -0.37381875802967746 0
      vertex -11.577583139031148 -0.37381875802967746 8
      vertex -11.20376438100147 -6.938893903907228e-18 0
    endloop
  endfacet
  facet normal 0 0 -1
    outer loop
      vertex -11.146181241970323 -3.0975831390311477 0
      vertex -10.602583139031147 0.3345602067755493 0
      vertex -10.602583139031147 -3.3745602067755494 0
    endloop
  endfacet
  facet normal 0 0 -1
    outer loop
      vertex -10.602583139031147 -3.3745602067755494 0
      vertex -10 0.42999999999999994 0
      vertex -10 -3.4699999999999998 0
    endloop
  endfacet
  facet normal -0.4539904997395454 -0.8910065241883686 0
    outer loop
      vertex -11.146181241970323 -3.0975831390311477 0
      vertex -10.602583139031147 -3.3745602067755494 0
      vertex -10.602583139031147 -3.3745602067755494 8
    endloop
  endfacet
  facet normal -0.15643446504023084 -0.9876883405951377 0
    outer loop
      vertex -10.602583139031147 -3.3745602067755494 0
      vertex -10 -3.4699999999999998 0
      vertex -10 -3.4699999999999998 8
    endloop
  endfacet
  facet normal 0 0 -1
    outer loop
      vertex -11.146181241970323 -3.0975831390311477 0
      vertex -11.146181241970323 0.05758313903114742 0
      vertex -10.602583139031147 0.3345602067755493 0
    endloop
  endfacet
  facet normal 0 0 -1
    outer loop
      vertex -10.602583139031147 -3.3745602067755494 0
      vertex -10.602583139031147 0.3345602067755493 0
      vertex -10 0.42999999999999994 0
    endloop
  endfacet
  facet normal -0.9876883405951377 -0.15643446504023062 0
    outer loop
      vertex -11.854560206775549 -2.1225831390311476 0
      vertex -11.854560206775549 -2.1225831390311476 8
      vertex -11.95 -1.52 8
    endloop
  endfacet
  facet normal -0.8910065241883688 -0.4539904997395452 0
    outer loop
      vertex -11.577583139031148 -2.666181241970323 0
      vertex -11.577583139031148 -2.666181241970323 8
      vertex -11.854560206775549 -2.1225831390311476 8
    endloop
  endfacet
  facet normal -0.7071067811865475 -0.7071067811865475 0
    outer loop
      vertex -11.577583139031148 -2.666181241970323 0
      vertex -11.146181241970323 -3.0975831390311477 8
      vertex -11.577583139031148 -2.666181241970323 8
    endloop
  endfacet
  facet normal 0 0 1
    outer loop
      vertex -11.577583139031148 -2.666181241970323 8
      vertex -11.854560206775549 -0.9174168609688526 8
      vertex -11.854560206775549 -2.1225831390311476 8
    endloop
  endfacet
  facet normal 0 0 1
    outer loop
      vertex -11.577583139031148 -2.666181241970323 8
      vertex -11.146181241970323 -3.0975831390311477 8
      vertex -11.577583139031148 -0.37381875802967746 8
    endloop
  endfacet
  facet normal -0.9876883405951378 0.15643446504023067 0
    outer loop
      vertex -11.95 -1.52 0
      vertex -11.95 -1.52 8
      vertex -11.854560206775549 -0.9174168609688526 8
    endloop
  endfacet
  facet normal -0.8910065241883688 0.4539904997395453 0
    outer loop
      vertex -11.854560206775549 -0.9174168609688526 0
      vertex -11.854560206775549 -0.9174168609688526 8
      vertex -11.577583139031148 -0.37381875802967746 8
    endloop
  endfacet
  facet normal -0.7071067811865469 0.7071067811865481 0
    outer loop
      vertex -11.577583139031148 -0.37381875802967746 8
      vertex -11.20376438100147 -6.938893903907228e-18 8
      vertex -11.20376438100147 -6.938893903907228e-18 0
    endloop
  endfacet
  facet normal 0 0 1
    outer loop
      vertex -11.854560206775549 -2.1225831390311476 8
      vertex -11.854560206775549 -0.9174168609688526 8
      vertex -11.95 -1.52 8
    endloop
  endfacet
  facet normal 0 0 1
    outer loop
      vertex -11.577583139031148 -2.666181241970323 8
      vertex -11.577583139031148 -0.37381875802967746 8
      vertex -11.854560206775549 -0.9174168609688526 8
    endloop
  endfacet
  facet normal 0 0 1
    outer loop
      vertex -11.146181241970323 -3.0975831390311477 8
      vertex -11.20376438100147 -6.938893903907228e-18 8
      vertex -11.577583139031148 -0.37381875802967746 8
    endloop
  endfacet
  facet normal 0 0 1
    outer loop
      vertex -11.146181241970323 -3.0975831390311477 8
      vertex -11.146181241970323 0.05758313903114742 8
      vertex -11.20376438100147 -6.938893903907228e-18 8
    endloop
  endfacet
  facet normal -0.4539904997395454 -0.8910065241883686 0
    outer loop
      vertex -11.146181241970323 -3.0975831390311477 0
      vertex -10.602583139031147 -3.3745602067755494 8
      vertex -11.146181241970323 -3.0975831390311477 8
    endloop
  endfacet
  facet normal -0.15643446504023084 -0.9876883405951377 0
    outer loop
      vertex -10.602583139031147 -3.3745602067755494 0
      vertex -10 -3.4699999999999998 8
      vertex -10.602583139031147 -3.3745602067755494 8
    endloop
  endfacet
  facet normal 0 0 1
    outer loop
      vertex -11.146181241970323 -3.0975831390311477 8
      vertex -10.602583139031147 -3.3745602067755494 8
      vertex -11.146181241970323 0.05758313903114742 8
    endloop
  endfacet
  facet normal 0 0 1
    outer loop
      vertex -10.602583139031147 -3.3745602067755494 8
      vertex -10 -3.4699999999999998 8
      vertex -10.602583139031147 0.3345602067755493 8
    endloop
  endfacet
  facet normal 0 0 1
    outer loop
      vertex -10.602583139031147 -3.3745602067755494 8
      vertex -10.602583139031147 0.3345602067755493 8
      vertex -11.146181241970323 0.05758313903114742 8
    endloop
  endfacet
  facet normal 0 0 1
    outer loop
      vertex -10.602583139031147 0.3345602067755493 8
      vertex -10 -3.4699999999999998 8
      vertex -10 0.42999999999999994 8
    endloop
  endfacet
  facet normal 0 0 -1
    outer loop
      vertex -10 -3.4699999999999998 0
      vertex -9.397416860968853 0.3345602067755493 0
      vertex -9.397416860968853 -3.3745602067755494 0
    endloop
  endfacet
  facet normal 0 0 -1
    outer loop
      vertex -9.397416860968853 -3.3745602067755494 0
      vertex -8.853818758029677 0.05758313903114742 0
      vertex -8.853818758029677 -3.0975831390311477 0
    endloop
  endfacet
  facet normal 0.15643446504023084 -0.9876883405951377 0
    outer loop
      vertex -10 -3.4699999999999998 0
      vertex -9.397416860968853 -3.3745602067755494 0
      vertex -9.397416860968853 -3.3745602067755494 8
    endloop
  endfacet
  facet normal 0.4539904997395454 -0.8910065241883686 0
    outer loop
      vertex -9.397416860968853 -3.3745602067755494 0
      vertex -8.853818758029677 -3.0975831390311477 0
      vertex -8.853818758029677 -3.0975831390311477 8
    endloop
  endfacet
  facet normal 0 0 -1
    outer loop
      vertex -10 -3.4699999999999998 0
      vertex -10 0.42999999999999994 0
      vertex -9.397416860968853 0.3345602067755493 0
    endloop
  endfacet
  facet normal 0 0 -1
    outer loop
      vertex -9.397416860968853 -3.3745602067755494 0
      vertex -9.397416860968853 0.3345602067755493 0
      vertex -8.853818758029677 0.05758313903114742 0
    endloop
  endfacet
  facet normal 0 0 -1
    outer loop
      vertex -8.853818758029677 -3.0975831390311477 0
      vertex -8.422416860968852 -0.37381875802967746 0
      vertex -8.422416860968852 -2.666181241970323 0
    endloop
  endfacet
  facet normal 0 0 -1
    outer loop
      vertex -8.422416860968852 -2.666181241970323 0
      vertex -8.145439793224451 -0.9174168609688526 0
      vertex -8.145439793224451 -2.1225831390311476 0
    endloop
  endfacet
  facet normal 0.7071067811865475 -0.7071067811865475 0
    outer loop
      vertex -8.853818758029677 -3.0975831390311477 0
      vertex -8.422416860968852 -2.666181241970323 0
      vertex -8.422416860968852 -2.666181241970323 8
    endloop
  endfacet
  facet normal 0.8910065241883688 -0.4539904997395452 0
    outer loop
      vertex -8.422416860968852 -2.666181241970323 0
      vertex -8.145439793224451 -2.1225831390311476 0
      vertex -8.422416860968852 -2.666181241970323 8
    endloop
  endfacet
  facet normal 0.9876883405951377 -0.15643446504023062 0
    outer loop
      vertex -8.145439793224451 -2.1225831390311476 0
      vertex -8.05 -1.52 0
      vertex -8.145439793224451 -2.1225831390311476 8
    endloop
  endfacet
  facet normal 0 0 -1
    outer loop
      vertex -8.853818758029677 -3.0975831390311477 0
      vertex -8.853818758029677 0.05758313903114742 0
      vertex -8.79623561899853 -6.938893903907228e-18 0
    endloop
  endfacet
  facet normal 0 0 -1
    outer loop
      vertex -8.853818758029677 -3.0975831390311477 0
      vertex -8.79623561899853 -6.938893903907228e-18 0
      vertex -8.422416860968852 -0.37381875802967746 0
    endloop
  endfacet
  facet normal 0 0 -1
    outer loop
      vertex -8.422416860968852 -2.666181241970323 0
      vertex -8.422416860968852 -0.37381875802967746 0
      vertex -8.145439793224451 -0.9174168609688526 0
    endloop
  endfacet
  facet normal 0 0 -1
    outer loop
      vertex -8.145439793224451 -2.1225831390311476 0
      vertex -8.145439793224451 -0.9174168609688526 0
      vertex -8.05 -1.52 0
    endloop
  endfacet
  facet normal 0.7071067811865469 0.7071067811865481 0
    outer loop
      vertex -8.422416860968852 -0.37381875802967746 0
      vertex -8.79623561899853 -6.938893903907228e-18 0
      vertex -8.79623561899853 -6.938893903907228e-18 8
    endloop
  endfacet
  facet normal 0.9876883405951378 0.15643446504023067 0
    outer loop
      vertex -8.05 -1.52 0
      vertex -8.145439793224451 -0.9174168609688526 0
      vertex -8.05 -1.52 8
    endloop
  endfacet
  facet normal 0.8910065241883688 0.4539904997395453 0
    outer loop
      vertex -8.145439793224451 -0.9174168609688526 0
      vertex -8.422416860968852 -0.37381875802967746 0
      vertex -8.145439793224451 -0.9174168609688526 8
    endloop
  endfacet
  facet normal 0.15643446504023084 -0.9876883405951377 0
    outer loop
      vertex -10 -3.4699999999999998 0
      vertex -9.397416860968853 -3.3745602067755494 8
      vertex -10 -3.4699999999999998 8
    endloop
  endfacet
  facet normal 0.4539904997395454 -0.8910065241883686 0
    outer loop
      vertex -9.397416860968853 -3.3745602067755494 0
      vertex -8.853818758029677 -3.0975831390311477 8
      vertex -9.397416860968853 -3.3745602067755494 8
    endloop
  endfacet
  facet normal 0 0 1
    outer loop
      vertex -10 -3.4699999999999998 8
      vertex -9.397416860968853 -3.3745602067755494 8
      vertex -10 0.42999999999999994 8
    endloop
  endfacet
  facet normal 0 0 1
    outer loop
      vertex -9.397416860968853 -3.3745602067755494 8
      vertex -8.853818758029677 -3.0975831390311477 8
      vertex -9.397416860968853 0.3345602067755493 8
    endloop
  endfacet
  facet normal 0 0 1
    outer loop
      vertex -9.397416860968853 -3.3745602067755494 8
      vertex -9.397416860968853 0.3345602067755493 8
      vertex -10 0.42999999999999994 8
    endloop
  endfacet
  facet normal 0 0 1
    outer loop
      vertex -8.853818758029677 -3.0975831390311477 8
      vertex -8.853818758029677 0.05758313903114742 8
      vertex -9.397416860968853 0.3345602067755493 8
    endloop
  endfacet
  facet normal 0.7071067811865475 -0.7071067811865475 0
    outer loop
      vertex -8.853818758029677 -3.0975831390311477 0
      vertex -8.422416860968852 -2.666181241970323 8
      vertex -8.853818758029677 -3.0975831390311477 8
    endloop
  endfacet
  facet normal 0.8910065241883688 -0.4539904997395452 0
    outer loop
      vertex -8.145439793224451 -2.1225831390311476 0
      vertex -8.145439793224451 -2.1225831390311476 8
      vertex -8.422416860968852 -2.666181241970323 8
    endloop
  endfacet
  facet normal 0 0 1
    outer loop
      vertex -8.853818758029677 -3.0975831390311477 8
      vertex -8.422416860968852 -2.666181241970323 8
      vertex -8.853818758029677 0.05758313903114742 8
    endloop
  endfacet
  facet normal 0.7071067811865469 0.7071067811865481 0
    outer loop
      vertex -8.422416860968852 -0.37381875802967746 0
      vertex -8.79623561899853 -6.938893903907228e-18 8
      vertex -8.422416860968852 -0.37381875802967746 8
    endloop
  endfacet
  facet normal 0.9876883405951377 -0.15643446504023062 0
    outer loop
      vertex -8.145439793224451 -2.1225831390311476 8
      vertex -8.05 -1.52 0
      vertex -8.05 -1.52 8
    endloop
  endfacet
  facet normal 0.9876883405951378 0.15643446504023067 0
    outer loop
      vertex -8.145439793224451 -0.9174168609688526 0
      vertex -8.145439793224451 -0.9174168609688526 8
      vertex -8.05 -1.52 8
    endloop
  endfacet
  facet normal 0.8910065241883688 0.4539904997395453 0
    outer loop
      vertex -8.422416860968852 -0.37381875802967746 0
      vertex -8.422416860968852 -0.37381875802967746 8
      vertex -8.145439793224451 -0.9174168609688526 8
    endloop
  endfacet
  facet normal 0 0 1
    outer loop
      vertex -8.422416860968852 -2.666181241970323 8
      vertex -8.79623561899853 -6.938893903907228e-18 8
      vertex -8.853818758029677 0.05758313903114742 8
    endloop
  endfacet
  facet normal 0 0 1
    outer loop
      vertex -8.422416860968852 -2.666181241970323 8
      vertex -8.422416860968852 -0.37381875802967746 8
      vertex -8.79623561899853 -6.938893903907228e-18 8
    endloop
  endfacet
  facet normal 0 0 1
    outer loop
      vertex -8.422416860968852 -2.666181241970323 8
      vertex -8.145439793224451 -2.1225831390311476 8
      vertex -8.422416860968852 -0.37381875802967746 8
    endloop
  endfacet
  facet normal 0 0 1
    outer loop
      vertex -8.145439793224451 -2.1225831390311476 8
      vertex -8.05 -1.52 8
      vertex -8.145439793224451 -0.9174168609688526 8
    endloop
  endfacet
  facet normal 0 0 1
    outer loop
      vertex -8.145439793224451 -2.1225831390311476 8
      vertex -8.145439793224451 -0.9174168609688526 8
      vertex -8.422416860968852 -0.37381875802967746 8
    endloop
  endfacet
  facet normal 0 0 -1
    outer loop
      vertex -11.854560206775549 0.9174168609688526 0
      vertex -11.95 1.52 0
      vertex -11.854560206775549 2.1225831390311476 0
    endloop
  endfacet
  facet normal 0 0 -1
    outer loop
      vertex -11.577583139031148 0.37381875802967746 0
      vertex -11.854560206775549 0.9174168609688526 0
      vertex -11.577583139031148 2.666181241970323 0
    endloop
  endfacet
  facet normal 0 0 -1
    outer loop
      vertex -11.577583139031148 0.37381875802967746 0
      vertex -11.146181241970323 0.05758313903114742 0
      vertex -11.20376438100147 -6.938893903907228e-18 0
    endloop
  endfacet
  facet normal 0 0 -1
    outer loop
      vertex -11.577583139031148 0.37381875802967746 0
      vertex -11.146181241970323 3.0975831390311477 0
      vertex -11.146181241970323 0.05758313903114742 0
    endloop
  endfacet
  facet normal -0.8910065241883688 -0.4539904997395453 0
    outer loop
      vertex -11.577583139031148 0.37381875802967746 0
      vertex -11.854560206775549 0.9174168609688526 8
      vertex -11.854560206775549 0.9174168609688526 0
    endloop
  endfacet
  facet normal -0.9876883405951378 -0.15643446504023067 0
    outer loop
      vertex -11.854560206775549 0.9174168609688526 0
      vertex -11.95 1.52 8
      vertex -11.95 1.52 0
    endloop
  endfacet
  facet normal -0.7071067811865469 -0.7071067811865481 0
    outer loop
      vertex -11.577583139031148 0.37381875802967746 0
      vertex -11.20376438100147 -6.938893903907228e-18 0
      vertex -11.577583139031148 0.37381875802967746 8
    endloop
  endfacet
  facet normal 0 0 -1
    outer loop
      vertex -11.854560206775549 0.9174168609688526 0
      vertex -11.854560206775549 2.1225831390311476 0
      vertex -11.577583139031148 2.666181241970323 0
    endloop
  endfacet
  facet normal 0 0 -1
    outer loop
      vertex -11.577583139031148 0.37381875802967746 0
      vertex -11.577583139031148 2.666181241970323 0
      vertex -11.146181241970323 3.0975831390311477 0
    endloop
  endfacet
  facet normal -0.9876883405951377 0.15643446504023062 0
    outer loop
      vertex -11.95 1.52 0
      vertex -11.854560206775549 2.1225831390311476 8
      vertex -11.854560206775549 2.1225831390311476 0
    endloop
  endfacet
  facet normal -0.8910065241883688 0.4539904997395452 0
    outer loop
      vertex -11.854560206775549 2.1225831390311476 0
      vertex -11.577583139031148 2.666181241970323 8
      vertex -11.577583139031148 2.666181241970323 0
    endloop
  endfacet
  facet normal -0.7071067811865475 0.7071067811865475 0
    outer loop
      vertex -11.577583139031148 2.666181241970323 0
      vertex -11.577583139031148 2.666181241970323 8
      vertex -11.146181241970323 3.0975831390311477 0
    endloop
  endfacet
  facet normal 0 0 -1
    outer loop
      vertex -11.146181241970323 3.0975831390311477 0
      vertex -10.602583139031147 0.3345602067755493 0
      vertex -11.146181241970323 0.05758313903114742 0
    endloop
  endfacet
  facet normal 0 0 -1
    outer loop
      vertex -10.602583139031147 3.3745602067755494 0
      vertex -10 0.42999999999999994 0
      vertex -10.602583139031147 0.3345602067755493 0
    endloop
  endfacet
  facet normal 0 0 -1
    outer loop
      vertex -11.146181241970323 3.0975831390311477 0
      vertex -10.602583139031147 3.3745602067755494 0
      vertex -10.602583139031147 0.3345602067755493 0
    endloop
  endfacet
  facet normal 0 0 -1
    outer loop
      vertex -10.602583139031147 3.3745602067755494 0
      vertex -10 3.4699999999999998 0
      vertex -10 0.42999999999999994 0
    endloop
  endfacet
  facet normal -0.4539904997395454 0.8910065241883686 0
    outer loop
      vertex -11.146181241970323 3.0975831390311477 0
      vertex -11.146181241970323 3.0975831390311477 8
      vertex -10.602583139031147 3.3745602067755494 0
    endloop
  endfacet
  facet normal -0.15643446504023084 0.9876883405951377 0
    outer loop
      vertex -10.602583139031147 3.3745602067755494 0
      vertex -10.602583139031147 3.3745602067755494 8
      vertex -10 3.4699999999999998 0
    endloop
  endfacet
  facet normal -0.8910065241883688 -0.4539904997395453 0
    outer loop
      vertex -11.577583139031148 0.37381875802967746 0
      vertex -11.577583139031148 0.37381875802967746 8
      vertex -11.854560206775549 0.9174168609688526 8
    endloop
  endfacet
  facet normal -0.9876883405951378 -0.15643446504023067 0
    outer loop
      vertex -11.854560206775549 0.9174168609688526 0
      vertex -11.854560206775549 0.9174168609688526 8
      vertex -11.95 1.52 8
    endloop
  endfacet
  facet normal -0.9876883405951377 0.15643446504023062 0
    outer loop
      vertex -11.95 1.52 0
      vertex -11.95 1.52 8
      vertex -11.854560206775549 2.1225831390311476 8
    endloop
  endfacet
  facet normal -0.7071067811865469 -0.7071067811865481 0
    outer loop
      vertex -11.577583139031148 0.37381875802967746 8
      vertex -11.20376438100147 -6.938893903907228e-18 0
      vertex -11.20376438100147 -6.938893903907228e-18 8
    endloop
  endfacet
  facet normal 0 0 1
    outer loop
      vertex -11.577583139031148 0.37381875802967746 8
      vertex -11.854560206775549 2.1225831390311476 8
      vertex -11.854560206775549 0.9174168609688526 8
    endloop
  endfacet
  facet normal 0 0 1
    outer loop
      vertex -11.854560206775549 0.9174168609688526 8
      vertex -11.854560206775549 2.1225831390311476 8
      vertex -11.95 1.52 8
    endloop
  endfacet
  facet normal 0 0 1
    outer loop
      vertex -11.577583139031148 0.37381875802967746 8
      vertex -11.577583139031148 2.666181241970323 8
      vertex -11.854560206775549 2.1225831390311476 8
    endloop
  endfacet
  facet normal 0 0 1
    outer loop
      vertex -11.577583139031148 0.37381875802967746 8
      vertex -11.20376438100147 -6.938893903907228e-18 8
      vertex -11.577583139031148 2.666181241970323 8
    endloop
  endfacet
  facet normal 0 0 1
    outer loop
      vertex -11.577583139031148 2.666181241970323 8
      vertex -11.20376438100147 -6.938893903907228e-18 8
      vertex -11.146181241970323 0.05758313903114742 8
    endloop
  endfacet
  facet normal -0.8910065241883688 0.4539904997395452 0
    outer loop
      vertex -11.854560206775549 2.1225831390311476 0
      vertex -11.854560206775549 2.1225831390311476 8
      vertex -11.577583139031148 2.666181241970323 8
    endloop
  endfacet
  facet normal -0.7071067811865475 0.7071067811865475 0
    outer loop
      vertex -11.146181241970323 3.0975831390311477 0
      vertex -11.577583139031148 2.666181241970323 8
      vertex -11.146181241970323 3.0975831390311477 8
    endloop
  endfacet
  facet normal 0 0 1
    outer loop
      vertex -11.577583139031148 2.666181241970323 8
      vertex -11.146181241970323 0.05758313903114742 8
      vertex -11.146181241970323 3.0975831390311477 8
    endloop
  endfacet
  facet normal 0 0 1
    outer loop
      vertex -11.146181241970323 3.0975831390311477 8
      vertex -11.146181241970323 0.05758313903114742 8
      vertex -10.602583139031147 0.3345602067755493 8
    endloop
  endfacet
  facet normal 0 0 1
    outer loop
      vertex -10.602583139031147 3.3745602067755494 8
      vertex -10.602583139031147 0.3345602067755493 8
      vertex -10 0.42999999999999994 8
    endloop
  endfacet
  facet normal -0.4539904997395454 0.8910065241883686 0
    outer loop
      vertex -10.602583139031147 3.3745602067755494 0
      vertex -11.146181241970323 3.0975831390311477 8
      vertex -10.602583139031147 3.3745602067755494 8
    endloop
  endfacet
  facet normal -0.15643446504023084 0.9876883405951377 0
    outer loop
      vertex -10.602583139031147 3.3745602067755494 8
      vertex -10 3.4699999999999998 8
      vertex -10 3.4699999999999998 0
    endloop
  endfacet
  facet normal 0 0 1
    outer loop
      vertex -11.146181241970323 3.0975831390311477 8
      vertex -10.602583139031147 0.3345602067755493 8
      vertex -10.602583139031147 3.3745602067755494 8
    endloop
  endfacet
  facet normal 0 0 1
    outer loop
      vertex -10.602583139031147 3.3745602067755494 8
      vertex -10 0.42999999999999994 8
      vertex -10 3.4699999999999998 8
    endloop
  endfacet
  facet normal 0 0 -1
    outer loop
      vertex -9.397416860968853 3.3745602067755494 0
      vertex -9.397416860968853 0.3345602067755493 0
      vertex -10 0.42999999999999994 0
    endloop
  endfacet
  facet normal 0 0 -1
    outer loop
      vertex -8.853818758029677 3.0975831390311477 0
      vertex -8.853818758029677 0.05758313903114742 0
      vertex -9.397416860968853 0.3345602067755493 0
    endloop
  endfacet
  facet normal 0 0 -1
    outer loop
      vertex -10 3.4699999999999998 0
      vertex -9.397416860968853 3.3745602067755494 0
      vertex -10 0.42999999999999994 0
    endloop
  endfacet
  facet normal 0 0 -1
    outer loop
      vertex -9.397416860968853 3.3745602067755494 0
      vertex -8.853818758029677 3.0975831390311477 0
      vertex -9.397416860968853 0.3345602067755493 0
    endloop
  endfacet
  facet normal 0.15643446504023084 0.9876883405951377 0
    outer loop
      vertex -10 3.4699999999999998 0
      vertex -10 3.4699999999999998 8
      vertex -9.397416860968853 3.3745602067755494 0
    endloop
  endfacet
  facet normal 0.4539904997395454 0.8910065241883686 0
    outer loop
      vertex -9.397416860968853 3.3745602067755494 0
      vertex -9.397416860968853 3.3745602067755494 8
      vertex -8.853818758029677 3.0975831390311477 0
    endloop
  endfacet
  facet normal 0 0 -1
    outer loop
      vertex -8.422416860968852 2.666181241970323 0
      vertex -8.79623561899853 -6.938893903907228e-18 0
      vertex -8.853818758029677 0.05758313903114742 0
    endloop
  endfacet
  facet normal 0 0 -1
    outer loop
      vertex -8.422416860968852 0.37381875802967746 0
      vertex -8.79623561899853 -6.938893903907228e-18 0
      vertex -8.422416860968852 2.666181241970323 0
    endloop
  endfacet
  facet normal 0 0 -1
    outer loop
      vertex -8.422416860968852 0.37381875802967746 0
      vertex -8.422416860968852 2.666181241970323 0
      vertex -8.145439793224451 2.1225831390311476 0
    endloop
  endfacet
  facet normal 0 0 -1
    outer loop
      vertex -8.422416860968852 0.37381875802967746 0
      vertex -8.145439793224451 2.1225831390311476 0
      vertex -8.145439793224451 0.9174168609688526 0
    endloop
  endfacet
  facet normal 0 0 -1
    outer loop
      vertex -8.145439793224451 0.9174168609688526 0
      vertex -8.145439793224451 2.1225831390311476 0
      vertex -8.05 1.52 0
    endloop
  endfacet
  facet normal 0.7071067811865469 -0.7071067811865481 0
    outer loop
      vertex -8.422416860968852 0.37381875802967746 0
      vertex -8.79623561899853 -6.938893903907228e-18 8
      vertex -8.79623561899853 -6.938893903907228e-18 0
    endloop
  endfacet
  facet normal 0.8910065241883688 -0.4539904997395453 0
    outer loop
      vertex -8.422416860968852 0.37381875802967746 0
      vertex -8.145439793224451 0.9174168609688526 0
      vertex -8.422416860968852 0.37381875802967746 8
    endloop
  endfacet
  facet normal 0.9876883405951378 -0.15643446504023067 0
    outer loop
      vertex -8.145439793224451 0.9174168609688526 0
      vertex -8.05 1.52 0
      vertex -8.145439793224451 0.9174168609688526 8
    endloop
  endfacet
  facet normal 0.9876883405951377 0.15643446504023062 0
    outer loop
      vertex -8.05 1.52 0
      vertex -8.145439793224451 2.1225831390311476 0
      vertex -8.05 1.52 8
    endloop
  endfacet
  facet normal 0 0 -1
    outer loop
      vertex -8.853818758029677 3.0975831390311477 0
      vertex -8.422416860968852 2.666181241970323 0
      vertex -8.853818758029677 0.05758313903114742 0
    endloop
  endfacet
  facet normal 0.7071067811865475 0.7071067811865475 0
    outer loop
      vertex -8.853818758029677 3.0975831390311477 0
      vertex -8.853818758029677 3.0975831390311477 8
      vertex -8.422416860968852 2.666181241970323 0
    endloop
  endfacet
  facet normal 0.8910065241883688 0.4539904997395452 0
    outer loop
      vertex -8.145439793224451 2.1225831390311476 0
      vertex -8.422416860968852 2.666181241970323 0
      vertex -8.145439793224451 2.1225831390311476 8
    endloop
  endfacet
  facet normal 0 0 1
    outer loop
      vertex -9.397416860968853 3.3745602067755494 8
      vertex -10 0.42999999999999994 8
      vertex -9.397416860968853 0.3345602067755493 8
    endloop
  endfacet
  facet normal 0 0 1
    outer loop
      vertex -8.853818758029677 3.0975831390311477 8
      vertex -9.397416860968853 0.3345602067755493 8
      vertex -8.853818758029677 0.05758313903114742 8
    endloop
  endfacet
  facet normal 0.15643446504023084 0.9876883405951377 0
    outer loop
      vertex -9.397416860968853 3.3745602067755494 0
      vertex -10 3.4699999999999998 8
      vertex -9.397416860968853 3.3745602067755494 8
    endloop
  endfacet
  facet normal 0.4539904997395454 0.8910065241883686 0
    outer loop
      vertex -8.853818758029677 3.0975831390311477 0
      vertex -9.397416860968853 3.3745602067755494 8
      vertex -8.853818758029677 3.0975831390311477 8
    endloop
  endfacet
  facet normal 0 0 1
    outer loop
      vertex -10 3.4699999999999998 8
      vertex -10 0.42999999999999994 8
      vertex -9.397416860968853 3.3745602067755494 8
    endloop
  endfacet
  facet normal 0 0 1
    outer loop
      vertex -9.397416860968853 3.3745602067755494 8
      vertex -9.397416860968853 0.3345602067755493 8
      vertex -8.853818758029677 3.0975831390311477 8
    endloop
  endfacet
  facet normal 0.7071067811865469 -0.7071067811865481 0
    outer loop
      vertex -8.422416860968852 0.37381875802967746 0
      vertex -8.422416860968852 0.37381875802967746 8
      vertex -8.79623561899853 -6.938893903907228e-18 8
    endloop
  endfacet
  facet normal 0.8910065241883688 -0.4539904997395453 0
    outer loop
      vertex -8.145439793224451 0.9174168609688526 0
      vertex -8.145439793224451 0.9174168609688526 8
      vertex -8.422416860968852 0.37381875802967746 8
    endloop
  endfacet
  facet normal 0.9876883405951378 -0.15643446504023067 0
    outer loop
      vertex -8.145439793224451 0.9174168609688526 8
      vertex -8.05 1.52 0
      vertex -8.05 1.52 8
    endloop
  endfacet
  facet normal 0 0 1
    outer loop
      vertex -8.422416860968852 0.37381875802967746 8
      vertex -8.853818758029677 0.05758313903114742 8
      vertex -8.79623561899853 -6.938893903907228e-18 8
    endloop
  endfacet
  facet normal 0 0 1
    outer loop
      vertex -8.422416860968852 0.37381875802967746 8
      vertex -8.853818758029677 3.0975831390311477 8
      vertex -8.853818758029677 0.05758313903114742 8
    endloop
  endfacet
  facet normal 0 0 1
    outer loop
      vertex -8.422416860968852 0.37381875802967746 8
      vertex -8.145439793224451 0.9174168609688526 8
      vertex -8.422416860968852 2.666181241970323 8
    endloop
  endfacet
  facet normal 0 0 1
    outer loop
      vertex -8.145439793224451 0.9174168609688526 8
      vertex -8.05 1.52 8
      vertex -8.145439793224451 2.1225831390311476 8
    endloop
  endfacet
  facet normal 0.7071067811865475 0.7071067811865475 0
    outer loop
      vertex -8.422416860968852 2.666181241970323 0
      vertex -8.853818758029677 3.0975831390311477 8
      vertex -8.422416860968852 2.666181241970323 8
    endloop
  endfacet
  facet normal 0.8910065241883688 0.4539904997395452 0
    outer loop
      vertex -8.422416860968852 2.666181241970323 0
      vertex -8.422416860968852 2.666181241970323 8
      vertex -8.145439793224451 2.1225831390311476 8
    endloop
  endfacet
  facet normal 0.9876883405951377 0.15643446504023062 0
    outer loop
      vertex -8.145439793224451 2.1225831390311476 0
      vertex -8.145439793224451 2.1225831390311476 8
      vertex -8.05 1.52 8
    endloop
  endfacet
  facet normal 0 0 1
    outer loop
      vertex -8.422416860968852 0.37381875802967746 8
      vertex -8.422416860968852 2.666181241970323 8
      vertex -8.853818758029677 3.0975831390311477 8
    endloop
  endfacet
  facet normal 0 0 1
    outer loop
      vertex -8.145439793224451 0.9174168609688526 8
      vertex -8.145439793224451 2.1225831390311476 8
      vertex -8.422416860968852 2.666181241970323 8
    endloop
  endfacet
endsolid OpenSCAD_Model
